<?xml version="1.0" encoding="UTF-8" standalone="no"?>
<!-- Created with Inkscape (http://www.inkscape.org/) -->

<svg
   width="180mm"
   height="150mm"
   viewBox="0 0 180 150"
   version="1.1"
   id="svg5"
   xml:space="preserve"
   inkscape:version="1.2.1 (9c6d41e, 2022-07-14)"
   sodipodi:docname="panel.svg"
   xmlns:inkscape="http://www.inkscape.org/namespaces/inkscape"
   xmlns:sodipodi="http://sodipodi.sourceforge.net/DTD/sodipodi-0.dtd"
   xmlns:xlink="http://www.w3.org/1999/xlink"
   xmlns="http://www.w3.org/2000/svg"
   xmlns:svg="http://www.w3.org/2000/svg"><sodipodi:namedview
     id="namedview7"
     pagecolor="#ffffff"
     bordercolor="#000000"
     borderopacity="0.25"
     inkscape:showpageshadow="2"
     inkscape:pageopacity="0.0"
     inkscape:pagecheckerboard="0"
     inkscape:deskcolor="#d1d1d1"
     inkscape:document-units="mm"
     showgrid="true"
     inkscape:zoom="0.99780624"
     inkscape:cx="184.40454"
     inkscape:cy="216.47489"
     inkscape:window-width="1390"
     inkscape:window-height="942"
     inkscape:window-x="639"
     inkscape:window-y="49"
     inkscape:window-maximized="0"
     inkscape:current-layer="figure_1"><inkscape:grid
       type="xygrid"
       id="grid9" /></sodipodi:namedview><defs
     id="defs2"><style
       type="text/css"
       id="style13">*{stroke-linejoin: round; stroke-linecap: butt}</style><path
       id="m4e247e968a"
       d="M 0 0  L 0 3.5  "
       style="stroke: #262626; stroke-width: 0.8" /><clipPath
       id="pe53f47d28c"><rect
         x="175.02375"
         y="7.2"
         width="357.12"
         height="266.112"
         id="rect193" /></clipPath><style
       type="text/css"
       id="style1276">*{stroke-linejoin: round; stroke-linecap: butt}</style><path
       id="m82a7dfb568"
       d="M 0 0  L 0 3.5  "
       style="stroke: #262626; stroke-width: 0.8" /><path
       id="m9b6c65fe31"
       d="M 0 0  L -3.5 0  "
       style="stroke: #262626; stroke-width: 0.8" /><path
       id="m7f2f862cfc"
       d="M -0 1.414214  L 0.848528 0  L 0 -1.414214  L -0.848528 -0  z "
       style="stroke: #7f7f7f; stroke-linejoin: miter" /><path
       id="m42b085653a"
       d="M 0 2.5  C 0.663008 2.5 1.29895 2.236584 1.767767 1.767767  C 2.236584 1.29895 2.5 0.663008 2.5 0  C 2.5 -0.663008 2.236584 -1.29895 1.767767 -1.767767  C 1.29895 -2.236584 0.663008 -2.5 0 -2.5  C -0.663008 -2.5 -1.29895 -2.236584 -1.767767 -1.767767  C -2.236584 -1.29895 -2.5 -0.663008 -2.5 0  C -2.5 0.663008 -2.236584 1.29895 -1.767767 1.767767  C -1.29895 2.236584 -0.663008 2.5 0 2.5  z "
       style="stroke: #717171; stroke-width: 1.75" /><clipPath
       id="pf092215aa2"><rect
         x="52.4"
         y="7.2"
         width="357.12"
         height="266.112"
         id="rect1404" /></clipPath><style
       type="text/css"
       id="style1508">*{stroke-linejoin: round; stroke-linecap: butt}</style><path
       id="m245ce3841c"
       d="M 0 0  L 0 3.5  "
       style="stroke: #262626; stroke-width: 0.8" /><path
       id="mc122cbf379"
       d="M 0 0  L -3.5 0  "
       style="stroke: #262626; stroke-width: 0.8" /><path
       id="m14ff2a773f"
       d="M 70.897072 -155.767843  L 69.736928 -155.767843  L 69.658048 -157.691301  L 69.57137 -159.614758  L 69.476591 -161.538216  L 69.373468 -163.461673  L 69.261829 -165.385131  L 69.141588 -167.308589  L 69.012753 -169.232046  L 68.875437 -171.155504  L 68.729869 -173.078961  L 68.576399 -175.002419  L 68.415502 -176.925876  L 68.24779 -178.849334  L 68.074004 -180.772791  L 67.895017 -182.696249  L 67.711831 -184.619706  L 67.525565 -186.543164  L 67.337449 -188.466621  L 67.148809 -190.390079  L 66.961049 -192.313536  L 66.775632 -194.236994  L 66.59406 -196.160452  L 66.417849 -198.083909  L 66.248502 -200.007367  L 66.087485 -201.930824  L 65.936199 -203.854282  L 65.795954 -205.777739  L 65.667941 -207.701197  L 65.553214 -209.624654  L 65.452659 -211.548112  L 65.366987 -213.471569  L 65.296707 -215.395027  L 65.242126 -217.318484  L 65.203334 -219.241942  L 65.180208 -221.1654  L 65.172412 -223.088857  L 65.179405 -225.012315  L 65.200454 -226.935772  L 65.234652 -228.85923  L 65.280939 -230.782687  L 65.338123 -232.706145  L 65.404912 -234.629602  L 65.47994 -236.55306  L 65.561798 -238.476517  L 65.649068 -240.399975  L 65.740349 -242.323432  L 65.83429 -244.24689  L 65.929619 -246.170347  L 66.025163 -248.093805  L 66.119873 -250.017263  L 66.212843 -251.94072  L 66.303322 -253.864178  L 66.390721 -255.787635  L 66.474624 -257.711093  L 66.554781 -259.63455  L 66.631108 -261.558008  L 66.703678 -263.481465  L 66.772705 -265.404923  L 66.838535 -267.32838  L 66.90162 -269.251838  L 66.962502 -271.175295  L 67.021791 -273.098753  L 67.080139 -275.02221  L 67.138219 -276.945668  L 67.196704 -278.869126  L 67.256243 -280.792583  L 67.317441 -282.716041  L 67.380845 -284.639498  L 67.446928 -286.562956  L 67.516073 -288.486413  L 67.588571 -290.409871  L 67.66461 -292.333328  L 67.744272 -294.256786  L 67.82754 -296.180243  L 67.914292 -298.103701  L 68.004314 -300.027158  L 68.097304 -301.950616  L 68.192885 -303.874074  L 68.290614 -305.797531  L 68.389994 -307.720989  L 68.490491 -309.644446  L 68.591544 -311.567904  L 68.692579 -313.491361  L 68.793022 -315.414819  L 68.892311 -317.338276  L 68.989907 -319.261734  L 69.085304 -321.185191  L 69.178037 -323.108649  L 69.267686 -325.032106  L 69.353885 -326.955564  L 69.436325 -328.879021  L 69.514752 -330.802479  L 69.588973 -332.725937  L 69.658849 -334.649394  L 69.724299 -336.572852  L 69.785294 -338.496309  L 69.841853 -340.419767  L 69.894038 -342.343224  L 69.941953 -344.266682  L 69.985732 -346.190139  L 70.648268 -346.190139  L 70.648268 -346.190139  L 70.692047 -344.266682  L 70.739962 -342.343224  L 70.792147 -340.419767  L 70.848706 -338.496309  L 70.909701 -336.572852  L 70.975151 -334.649394  L 71.045027 -332.725937  L 71.119248 -330.802479  L 71.197675 -328.879021  L 71.280115 -326.955564  L 71.366314 -325.032106  L 71.455963 -323.108649  L 71.548696 -321.185191  L 71.644093 -319.261734  L 71.741689 -317.338276  L 71.840978 -315.414819  L 71.941421 -313.491361  L 72.042456 -311.567904  L 72.143509 -309.644446  L 72.244006 -307.720989  L 72.343386 -305.797531  L 72.441115 -303.874074  L 72.536696 -301.950616  L 72.629686 -300.027158  L 72.719708 -298.103701  L 72.80646 -296.180243  L 72.889728 -294.256786  L 72.96939 -292.333328  L 73.045429 -290.409871  L 73.117927 -288.486413  L 73.187072 -286.562956  L 73.253155 -284.639498  L 73.316559 -282.716041  L 73.377757 -280.792583  L 73.437296 -278.869126  L 73.495781 -276.945668  L 73.553861 -275.02221  L 73.612209 -273.098753  L 73.671498 -271.175295  L 73.73238 -269.251838  L 73.795465 -267.32838  L 73.861295 -265.404923  L 73.930322 -263.481465  L 74.002892 -261.558008  L 74.079219 -259.63455  L 74.159376 -257.711093  L 74.243279 -255.787635  L 74.330678 -253.864178  L 74.421157 -251.94072  L 74.514127 -250.017263  L 74.608837 -248.093805  L 74.704381 -246.170347  L 74.79971 -244.24689  L 74.893651 -242.323432  L 74.984932 -240.399975  L 75.072202 -238.476517  L 75.15406 -236.55306  L 75.229088 -234.629602  L 75.295877 -232.706145  L 75.353061 -230.782687  L 75.399348 -228.85923  L 75.433546 -226.935772  L 75.454595 -225.012315  L 75.461588 -223.088857  L 75.453792 -221.1654  L 75.430666 -219.241942  L 75.391874 -217.318484  L 75.337293 -215.395027  L 75.267013 -213.471569  L 75.181341 -211.548112  L 75.080786 -209.624654  L 74.966059 -207.701197  L 74.838046 -205.777739  L 74.697801 -203.854282  L 74.546515 -201.930824  L 74.385498 -200.007367  L 74.216151 -198.083909  L 74.03994 -196.160452  L 73.858368 -194.236994  L 73.672951 -192.313536  L 73.485191 -190.390079  L 73.296551 -188.466621  L 73.108435 -186.543164  L 72.922169 -184.619706  L 72.738983 -182.696249  L 72.559996 -180.772791  L 72.38621 -178.849334  L 72.218498 -176.925876  L 72.057601 -175.002419  L 71.904131 -173.078961  L 71.758563 -171.155504  L 71.621247 -169.232046  L 71.492412 -167.308589  L 71.372171 -165.385131  L 71.260532 -163.461673  L 71.157409 -161.538216  L 71.06263 -159.614758  L 70.975952 -157.691301  L 70.897072 -155.767843  z "
       style="stroke: #6f6f6f; stroke-width: 1.5" /><path
       id="m713b318697"
       d="M 142.493759 -192.330547  L 140.988241 -192.330547  L 140.898183 -193.486963  L 140.800302 -194.643379  L 140.694329 -195.799795  L 140.580039 -196.956211  L 140.45726 -198.112627  L 140.325878 -199.269043  L 140.185846 -200.42546  L 140.037189 -201.581876  L 139.880007 -202.738292  L 139.714483 -203.894708  L 139.540883 -205.051124  L 139.35956 -206.20754  L 139.170954 -207.363956  L 138.975589 -208.520372  L 138.774077 -209.676788  L 138.567105 -210.833205  L 138.355438 -211.989621  L 138.139905 -213.146037  L 137.921396 -214.302453  L 137.700848 -215.458869  L 137.479237 -216.615285  L 137.257561 -217.771701  L 137.036835 -218.928117  L 136.818071 -220.084534  L 136.602265 -221.24095  L 136.390389 -222.397366  L 136.183373 -223.553782  L 135.982096 -224.710198  L 135.787371 -225.866614  L 135.599943 -227.02303  L 135.420474 -228.179446  L 135.249542 -229.335862  L 135.087634 -230.492279  L 134.935147 -231.648695  L 134.792386 -232.805111  L 134.65957 -233.961527  L 134.536833 -235.117943  L 134.424234 -236.274359  L 134.321764 -237.430775  L 134.229356 -238.587191  L 134.146898 -239.743608  L 134.074239 -240.900024  L 134.011209 -242.05644  L 133.957625 -243.212856  L 133.913306 -244.369272  L 133.878083 -245.525688  L 133.851806 -246.682104  L 133.834358 -247.83852  L 133.825655 -248.994936  L 133.825655 -250.151353  L 133.834358 -251.307769  L 133.851806 -252.464185  L 133.878083 -253.620601  L 133.913306 -254.777017  L 133.957625 -255.933433  L 134.011209 -257.089849  L 134.074239 -258.246265  L 134.146898 -259.402681  L 134.229356 -260.559098  L 134.321764 -261.715514  L 134.424234 -262.87193  L 134.536833 -264.028346  L 134.65957 -265.184762  L 134.792386 -266.341178  L 134.935147 -267.497594  L 135.087634 -268.65401  L 135.249542 -269.810427  L 135.420474 -270.966843  L 135.599943 -272.123259  L 135.787371 -273.279675  L 135.982096 -274.436091  L 136.183373 -275.592507  L 136.390389 -276.748923  L 136.602265 -277.905339  L 136.818071 -279.061755  L 137.036835 -280.218172  L 137.257561 -281.374588  L 137.479237 -282.531004  L 137.700848 -283.68742  L 137.921396 -284.843836  L 138.139905 -286.000252  L 138.355438 -287.156668  L 138.567105 -288.313084  L 138.774077 -289.469501  L 138.975589 -290.625917  L 139.170954 -291.782333  L 139.35956 -292.938749  L 139.540883 -294.095165  L 139.714483 -295.251581  L 139.880007 -296.407997  L 140.037189 -297.564413  L 140.185846 -298.720829  L 140.325878 -299.877246  L 140.45726 -301.033662  L 140.580039 -302.190078  L 140.694329 -303.346494  L 140.800302 -304.50291  L 140.898183 -305.659326  L 140.988241 -306.815742  L 142.493759 -306.815742  L 142.493759 -306.815742  L 142.583817 -305.659326  L 142.681698 -304.50291  L 142.787671 -303.346494  L 142.901961 -302.190078  L 143.02474 -301.033662  L 143.156122 -299.877246  L 143.296154 -298.720829  L 143.444811 -297.564413  L 143.601993 -296.407997  L 143.767517 -295.251581  L 143.941117 -294.095165  L 144.12244 -292.938749  L 144.311046 -291.782333  L 144.506411 -290.625917  L 144.707923 -289.469501  L 144.914895 -288.313084  L 145.126562 -287.156668  L 145.342095 -286.000252  L 145.560604 -284.843836  L 145.781152 -283.68742  L 146.002763 -282.531004  L 146.224439 -281.374588  L 146.445165 -280.218172  L 146.663929 -279.061755  L 146.879735 -277.905339  L 147.091611 -276.748923  L 147.298627 -275.592507  L 147.499904 -274.436091  L 147.694629 -273.279675  L 147.882057 -272.123259  L 148.061526 -270.966843  L 148.232458 -269.810427  L 148.394366 -268.65401  L 148.546853 -267.497594  L 148.689614 -266.341178  L 148.82243 -265.184762  L 148.945167 -264.028346  L 149.057766 -262.87193  L 149.160236 -261.715514  L 149.252644 -260.559098  L 149.335102 -259.402681  L 149.407761 -258.246265  L 149.470791 -257.089849  L 149.524375 -255.933433  L 149.568694 -254.777017  L 149.603917 -253.620601  L 149.630194 -252.464185  L 149.647642 -251.307769  L 149.656345 -250.151353  L 149.656345 -248.994936  L 149.647642 -247.83852  L 149.630194 -246.682104  L 149.603917 -245.525688  L 149.568694 -244.369272  L 149.524375 -243.212856  L 149.470791 -242.05644  L 149.407761 -240.900024  L 149.335102 -239.743608  L 149.252644 -238.587191  L 149.160236 -237.430775  L 149.057766 -236.274359  L 148.945167 -235.117943  L 148.82243 -233.961527  L 148.689614 -232.805111  L 148.546853 -231.648695  L 148.394366 -230.492279  L 148.232458 -229.335862  L 148.061526 -228.179446  L 147.882057 -227.02303  L 147.694629 -225.866614  L 147.499904 -224.710198  L 147.298627 -223.553782  L 147.091611 -222.397366  L 146.879735 -221.24095  L 146.663929 -220.084534  L 146.445165 -218.928117  L 146.224439 -217.771701  L 146.002763 -216.615285  L 145.781152 -215.458869  L 145.560604 -214.302453  L 145.342095 -213.146037  L 145.126562 -211.989621  L 144.914895 -210.833205  L 144.707923 -209.676788  L 144.506411 -208.520372  L 144.311046 -207.363956  L 144.12244 -206.20754  L 143.941117 -205.051124  L 143.767517 -203.894708  L 143.601993 -202.738292  L 143.444811 -201.581876  L 143.296154 -200.42546  L 143.156122 -199.269043  L 143.02474 -198.112627  L 142.901961 -196.956211  L 142.787671 -195.799795  L 142.681698 -194.643379  L 142.583817 -193.486963  L 142.493759 -192.330547  z "
       style="stroke: #6f6f6f; stroke-width: 1.5" /><path
       id="m19982b1c82"
       d="M 214.022568 -182.71001  L 212.307432 -182.71001  L 212.185967 -183.823328  L 212.051698 -184.936646  L 211.903997 -186.049964  L 211.742319 -187.163282  L 211.566219 -188.276599  L 211.375377 -189.389917  L 211.169615 -190.503235  L 210.948916 -191.616553  L 210.713446 -192.729871  L 210.463563 -193.843188  L 210.199838 -194.956506  L 209.92306 -196.069824  L 209.634249 -197.183142  L 209.334651 -198.29646  L 209.025746 -199.409778  L 208.709231 -200.523095  L 208.387016 -201.636413  L 208.061201 -202.749731  L 207.734056 -203.863049  L 207.407991 -204.976367  L 207.085526 -206.089685  L 206.769247 -207.203002  L 206.461774 -208.31632  L 206.165709 -209.429638  L 205.883593 -210.542956  L 205.617863 -211.656274  L 205.370799 -212.769591  L 205.144484 -213.882909  L 204.940762 -214.996227  L 204.761199 -216.109545  L 204.607049 -217.222863  L 204.479231 -218.336181  L 204.378308 -219.449498  L 204.304474 -220.562816  L 204.257553 -221.676134  L 204.237 -222.789452  L 204.24192 -223.90277  L 204.271084 -225.016088  L 204.322962 -226.129405  L 204.39576 -227.242723  L 204.487458 -228.356041  L 204.595863 -229.469359  L 204.718655 -230.582677  L 204.853445 -231.695994  L 204.997824 -232.809312  L 205.149423 -233.92263  L 205.305958 -235.035948  L 205.465283 -236.149266  L 205.62543 -237.262584  L 205.784646 -238.375901  L 205.941427 -239.489219  L 206.094536 -240.602537  L 206.243023 -241.715855  L 206.386228 -242.829173  L 206.52378 -243.942491  L 206.655589 -245.055808  L 206.781831 -246.169126  L 206.90292 -247.282444  L 207.019483 -248.395762  L 207.132325 -249.50908  L 207.242389 -250.622397  L 207.350723 -251.735715  L 207.458434 -252.849033  L 207.566646 -253.962351  L 207.676469 -255.075669  L 207.788952 -256.188987  L 207.905059 -257.302304  L 208.025634 -258.415622  L 208.151378 -259.52894  L 208.282832 -260.642258  L 208.420363 -261.755576  L 208.564156 -262.868894  L 208.714214 -263.982211  L 208.870357 -265.095529  L 209.032237 -266.208847  L 209.199347 -267.322165  L 209.371036 -268.435483  L 209.546534 -269.5488  L 209.724971 -270.662118  L 209.905399 -271.775436  L 210.086821 -272.888754  L 210.268208 -274.002072  L 210.448532 -275.11539  L 210.62678 -276.228707  L 210.801977 -277.342025  L 210.973207 -278.455343  L 211.139624 -279.568661  L 211.300468 -280.681979  L 211.455073 -281.795297  L 211.602873 -282.908614  L 211.743409 -284.021932  L 211.876326 -285.13525  L 212.001377 -286.248568  L 212.118414 -287.361886  L 212.227386 -288.475203  L 212.328331 -289.588521  L 212.421366 -290.701839  L 212.506682 -291.815157  L 212.584532 -292.928475  L 213.745468 -292.928475  L 213.745468 -292.928475  L 213.823318 -291.815157  L 213.908634 -290.701839  L 214.001669 -289.588521  L 214.102614 -288.475203  L 214.211586 -287.361886  L 214.328623 -286.248568  L 214.453674 -285.13525  L 214.586591 -284.021932  L 214.727127 -282.908614  L 214.874927 -281.795297  L 215.029532 -280.681979  L 215.190376 -279.568661  L 215.356793 -278.455343  L 215.528023 -277.342025  L 215.70322 -276.228707  L 215.881468 -275.11539  L 216.061792 -274.002072  L 216.243179 -272.888754  L 216.424601 -271.775436  L 216.605029 -270.662118  L 216.783466 -269.5488  L 216.958964 -268.435483  L 217.130653 -267.322165  L 217.297763 -266.208847  L 217.459643 -265.095529  L 217.615786 -263.982211  L 217.765844 -262.868894  L 217.909637 -261.755576  L 218.047168 -260.642258  L 218.178622 -259.52894  L 218.304366 -258.415622  L 218.424941 -257.302304  L 218.541048 -256.188987  L 218.653531 -255.075669  L 218.763354 -253.962351  L 218.871566 -252.849033  L 218.979277 -251.735715  L 219.087611 -250.622397  L 219.197675 -249.50908  L 219.310517 -248.395762  L 219.42708 -247.282444  L 219.548169 -246.169126  L 219.674411 -245.055808  L 219.80622 -243.942491  L 219.943772 -242.829173  L 220.086977 -241.715855  L 220.235464 -240.602537  L 220.388573 -239.489219  L 220.545354 -238.375901  L 220.70457 -237.262584  L 220.864717 -236.149266  L 221.024042 -235.035948  L 221.180577 -233.92263  L 221.332176 -232.809312  L 221.476555 -231.695994  L 221.611345 -230.582677  L 221.734137 -229.469359  L 221.842542 -228.356041  L 221.93424 -227.242723  L 222.007038 -226.129405  L 222.058916 -225.016088  L 222.08808 -223.90277  L 222.093 -222.789452  L 222.072447 -221.676134  L 222.025526 -220.562816  L 221.951692 -219.449498  L 221.850769 -218.336181  L 221.722951 -217.222863  L 221.568801 -216.109545  L 221.389238 -214.996227  L 221.185516 -213.882909  L 220.959201 -212.769591  L 220.712137 -211.656274  L 220.446407 -210.542956  L 220.164291 -209.429638  L 219.868226 -208.31632  L 219.560753 -207.203002  L 219.244474 -206.089685  L 218.922009 -204.976367  L 218.595944 -203.863049  L 218.268799 -202.749731  L 217.942984 -201.636413  L 217.620769 -200.523095  L 217.304254 -199.409778  L 216.995349 -198.29646  L 216.695751 -197.183142  L 216.40694 -196.069824  L 216.130162 -194.956506  L 215.866437 -193.843188  L 215.616554 -192.729871  L 215.381084 -191.616553  L 215.160385 -190.503235  L 214.954623 -189.389917  L 214.763781 -188.276599  L 214.587681 -187.163282  L 214.426003 -186.049964  L 214.278302 -184.936646  L 214.144033 -183.823328  L 214.022568 -182.71001  z "
       style="stroke: #6f6f6f; stroke-width: 1.5" /><path
       id="m0697509a66"
       d="M 0 1.5  C 0.397805 1.5 0.77937 1.341951 1.06066 1.06066  C 1.341951 0.77937 1.5 0.397805 1.5 0  C 1.5 -0.397805 1.341951 -0.77937 1.06066 -1.06066  C 0.77937 -1.341951 0.397805 -1.5 0 -1.5  C -0.397805 -1.5 -0.77937 -1.341951 -1.06066 -1.06066  C -1.341951 -0.77937 -1.5 -0.397805 -1.5 0  C -1.5 0.397805 -1.341951 0.77937 -1.06066 1.06066  C -0.77937 1.341951 -0.397805 1.5 0 1.5  z "
       style="stroke: #6f6f6f" /><path
       id="C0_0_371572a798"
       d="M 0 2.5  C 0.663008 2.5 1.29895 2.236584 1.767767 1.767767  C 2.236584 1.29895 2.5 0.663008 2.5 -0  C 2.5 -0.663008 2.236584 -1.29895 1.767767 -1.767767  C 1.29895 -2.236584 0.663008 -2.5 0 -2.5  C -0.663008 -2.5 -1.29895 -2.236584 -1.767767 -1.767767  C -2.236584 -1.29895 -2.5 -0.663008 -2.5 0  C -2.5 0.663008 -2.236584 1.29895 -1.767767 1.767767  C -1.29895 2.236584 -0.663008 2.5 0 2.5  z " /><path
       id="C1_0_170cae5e2e"
       d="M 0 2.5  C 0.663008 2.5 1.29895 2.236584 1.767767 1.767767  C 2.236584 1.29895 2.5 0.663008 2.5 -0  C 2.5 -0.663008 2.236584 -1.29895 1.767767 -1.767767  C 1.29895 -2.236584 0.663008 -2.5 0 -2.5  C -0.663008 -2.5 -1.29895 -2.236584 -1.767767 -1.767767  C -2.236584 -1.29895 -2.5 -0.663008 -2.5 0  C -2.5 0.663008 -2.236584 1.29895 -1.767767 1.767767  C -1.29895 2.236584 -0.663008 2.5 0 2.5  z " /><path
       id="C2_0_96cc126292"
       d="M 0 2.5  C 0.663008 2.5 1.29895 2.236584 1.767767 1.767767  C 2.236584 1.29895 2.5 0.663008 2.5 -0  C 2.5 -0.663008 2.236584 -1.29895 1.767767 -1.767767  C 1.29895 -2.236584 0.663008 -2.5 0 -2.5  C -0.663008 -2.5 -1.29895 -2.236584 -1.767767 -1.767767  C -2.236584 -1.29895 -2.5 -0.663008 -2.5 0  C -2.5 0.663008 -2.236584 1.29895 -1.767767 1.767767  C -1.29895 2.236584 -0.663008 2.5 0 2.5  z " /><path
       id="m9491f1f2da"
       d="M 0 2.5  C 0.663008 2.5 1.29895 2.236584 1.767767 1.767767  C 2.236584 1.29895 2.5 0.663008 2.5 0  C 2.5 -0.663008 2.236584 -1.29895 1.767767 -1.767767  C 1.29895 -2.236584 0.663008 -2.5 0 -2.5  C -0.663008 -2.5 -1.29895 -2.236584 -1.767767 -1.767767  C -2.236584 -1.29895 -2.5 -0.663008 -2.5 0  C -2.5 0.663008 -2.236584 1.29895 -1.767767 1.767767  C -1.29895 2.236584 -0.663008 2.5 0 2.5  z "
       style="stroke: #7b7b7b; stroke-width: 2" /><path
       id="mc40e502d08"
       d="M 0 2.5  C 0.663008 2.5 1.29895 2.236584 1.767767 1.767767  C 2.236584 1.29895 2.5 0.663008 2.5 0  C 2.5 -0.663008 2.236584 -1.29895 1.767767 -1.767767  C 1.29895 -2.236584 0.663008 -2.5 0 -2.5  C -0.663008 -2.5 -1.29895 -2.236584 -1.767767 -1.767767  C -2.236584 -1.29895 -2.5 -0.663008 -2.5 0  C -2.5 0.663008 -2.236584 1.29895 -1.767767 1.767767  C -1.29895 2.236584 -0.663008 2.5 0 2.5  z "
       style="stroke: #858585; stroke-width: 2" /><clipPath
       id="p768935dd7a"><rect
         x="34.605"
         y="10.063125"
         width="357.12"
         height="266.112"
         id="rect1765" /></clipPath></defs><g
     inkscape:label="Layer 1"
     inkscape:groupmode="layer"
     id="layer1"><g
       id="figure_1"
       transform="matrix(0.35277778,0,0,0.35277778,-27.251994,-1.2663793)"><g
         id="axes_1"
         transform="matrix(0.75657362,0,0,0.50610529,87.024213,38.36122)"><g
           id="patch_2"><path
             d="m 175.02375,273.312 h 357.12 V 7.2 h -357.12 z"
             style="fill:#ffffff"
             id="path20" /></g><g
           id="matplotlib.axis_1"><g
             id="xtick_1"><g
               id="line2d_1"><defs
                 id="defs24"><path
                   id="path210"
                   d="M 0,0 V 3.5"
                   style="stroke:#262626;stroke-width:0.8" /></defs><g
                 id="g28"><use
                   xlink:href="#m4e247e968a"
                   x="175.02374"
                   y="273.31201"
                   style="fill:#262626;stroke:#262626;stroke-width:0.8"
                   id="use26" /></g></g><g
               id="text_1"><text
                 style="font-style:normal;font-variant:normal;font-weight:normal;font-stretch:normal;font-size:8px;line-height:normal;font-family:Arial, sans-serif;text-anchor:middle;fill:#262626"
                 x="175.02374"
                 y="286.03824"
                 id="text31">0</text></g></g><g
             id="xtick_2"><g
               id="line2d_2"><g
                 id="g37"><use
                   xlink:href="#m4e247e968a"
                   x="229.44203"
                   y="273.31201"
                   style="fill:#262626;stroke:#262626;stroke-width:0.8"
                   id="use35" /></g></g><g
               id="text_2"><text
                 style="font-style:normal;font-variant:normal;font-weight:normal;font-stretch:normal;font-size:8px;line-height:normal;font-family:Arial, sans-serif;text-anchor:middle;fill:#262626"
                 x="229.44203"
                 y="286.03824"
                 id="text40">20000</text></g></g><g
             id="xtick_3"><g
               id="line2d_3"><g
                 id="g46"><use
                   xlink:href="#m4e247e968a"
                   x="283.86032"
                   y="273.31201"
                   style="fill:#262626;stroke:#262626;stroke-width:0.8"
                   id="use44" /></g></g><g
               id="text_3"><text
                 style="font-style:normal;font-variant:normal;font-weight:normal;font-stretch:normal;font-size:8px;line-height:normal;font-family:Arial, sans-serif;text-anchor:middle;fill:#262626"
                 x="283.86032"
                 y="286.03824"
                 id="text49">40000</text></g></g><g
             id="xtick_4"><g
               id="line2d_4"><g
                 id="g55"><use
                   xlink:href="#m4e247e968a"
                   x="338.27859"
                   y="273.31201"
                   style="fill:#262626;stroke:#262626;stroke-width:0.8"
                   id="use53" /></g></g><g
               id="text_4"><text
                 style="font-style:normal;font-variant:normal;font-weight:normal;font-stretch:normal;font-size:8px;line-height:normal;font-family:Arial, sans-serif;text-anchor:middle;fill:#262626"
                 x="338.27859"
                 y="286.03824"
                 id="text58">60000</text></g></g><g
             id="xtick_5"><g
               id="line2d_5"><g
                 id="g64"><use
                   xlink:href="#m4e247e968a"
                   x="392.6969"
                   y="273.31201"
                   style="fill:#262626;stroke:#262626;stroke-width:0.8"
                   id="use62" /></g></g><g
               id="text_5"><text
                 style="font-style:normal;font-variant:normal;font-weight:normal;font-stretch:normal;font-size:8px;line-height:normal;font-family:Arial, sans-serif;text-anchor:middle;fill:#262626"
                 x="392.6969"
                 y="286.03824"
                 id="text67">80000</text></g></g><g
             id="xtick_6"><g
               id="line2d_6"><g
                 id="g73"><use
                   xlink:href="#m4e247e968a"
                   x="447.11517"
                   y="273.31201"
                   style="fill:#262626;stroke:#262626;stroke-width:0.8"
                   id="use71" /></g></g><g
               id="text_6"><text
                 style="font-style:normal;font-variant:normal;font-weight:normal;font-stretch:normal;font-size:8px;line-height:normal;font-family:Arial, sans-serif;text-anchor:middle;fill:#262626"
                 x="447.11517"
                 y="286.03824"
                 id="text76">100000</text></g></g><g
             id="xtick_7"><g
               id="line2d_7"><g
                 id="g82"><use
                   xlink:href="#m4e247e968a"
                   x="501.53348"
                   y="273.31201"
                   style="fill:#262626;stroke:#262626;stroke-width:0.8"
                   id="use80" /></g></g><g
               id="text_7"><text
                 style="font-style:normal;font-variant:normal;font-weight:normal;font-stretch:normal;font-size:8px;line-height:normal;font-family:Arial, sans-serif;text-anchor:middle;fill:#262626"
                 x="501.53348"
                 y="286.03824"
                 id="text85">120000</text></g></g><g
             id="text_8"
             transform="translate(-9.7454917e-6,14.819051)"><text
               style="font-style:normal;font-variant:normal;font-weight:normal;font-stretch:normal;font-size:14.5444px;line-height:normal;font-family:Arial, sans-serif;text-anchor:middle;fill:#262626"
               x="343.9527"
               y="301.77222"
               id="text89"><tspan
                 style="font-style:normal;font-variant:normal;font-weight:bold;font-stretch:normal;font-size:14.5444px;font-family:Arial, sans-serif;-inkscape-font-specification:'Arial, sans-serif Bold'"
                 id="tspan1984">Median Salary</tspan></text></g></g><g
           id="matplotlib.axis_2"><g
             id="ytick_1"><g
               id="text_9"><text
                 style="font-style:normal;font-variant:normal;font-weight:normal;font-stretch:normal;font-size:8px;line-height:normal;font-family:Arial, sans-serif;text-anchor:end;fill:#262626"
                 x="168.02374"
                 y="254.20483"
                 id="text93">computer engineering</text></g></g><g
             id="ytick_2"><g
               id="text_10"><text
                 style="font-style:normal;font-variant:normal;font-weight:normal;font-stretch:normal;font-size:8px;line-height:normal;font-family:Arial, sans-serif;text-anchor:end;fill:#262626"
                 x="168.02374"
                 y="229.51912"
                 id="text97">materials science</text></g></g><g
             id="ytick_3"><g
               id="text_11"><text
                 style="font-style:normal;font-variant:normal;font-weight:normal;font-stretch:normal;font-size:8px;line-height:normal;font-family:Arial, sans-serif;text-anchor:end;fill:#262626"
                 x="168.02374"
                 y="204.8334"
                 id="text101">actuarial science</text></g></g><g
             id="ytick_4"><g
               id="text_12"><text
                 style="font-style:normal;font-variant:normal;font-weight:normal;font-stretch:normal;font-size:8px;line-height:normal;font-family:Arial, sans-serif;text-anchor:end;fill:#262626"
                 x="168.02374"
                 y="180.14769"
                 id="text105">astronomy and astrophysics</text></g></g><g
             id="ytick_5"><g
               id="text_13"><text
                 style="font-style:normal;font-variant:normal;font-weight:normal;font-stretch:normal;font-size:8px;line-height:normal;font-family:Arial, sans-serif;text-anchor:end;fill:#262626"
                 x="168.02374"
                 y="155.46198"
                 id="text109">chemical engineering</text></g></g><g
             id="ytick_6"><g
               id="text_14"><text
                 style="font-style:normal;font-variant:normal;font-weight:normal;font-stretch:normal;font-size:8px;line-height:normal;font-family:Arial, sans-serif;text-anchor:end;fill:#262626"
                 x="168.02374"
                 y="130.77626"
                 id="text113">nuclear engineering</text></g></g><g
             id="ytick_7"><g
               id="text_15"><text
                 style="font-style:normal;font-variant:normal;font-weight:normal;font-stretch:normal;font-size:8px;line-height:normal;font-family:Arial, sans-serif;text-anchor:end;fill:#262626"
                 x="168.02374"
                 y="106.09055"
                 id="text117">naval architecture and marine engineering</text></g></g><g
             id="ytick_8"><g
               id="text_16"><text
                 style="font-style:normal;font-variant:normal;font-weight:normal;font-stretch:normal;font-size:8px;line-height:normal;font-family:Arial, sans-serif;text-anchor:end;fill:#262626"
                 x="168.02374"
                 y="81.404839"
                 id="text121">metallurgical engineering</text></g></g><g
             id="ytick_9"><g
               id="text_17"><text
                 style="font-style:normal;font-variant:normal;font-weight:normal;font-stretch:normal;font-size:8px;line-height:normal;font-family:Arial, sans-serif;text-anchor:end;fill:#262626"
                 x="168.02374"
                 y="56.719124"
                 id="text125">mining and mineral engineering</text></g></g><g
             id="ytick_10"><g
               id="text_18"><text
                 style="font-style:normal;font-variant:normal;font-weight:normal;font-stretch:normal;font-size:8px;line-height:normal;font-family:Arial, sans-serif;text-anchor:end;fill:#262626"
                 x="168.02374"
                 y="32.033409"
                 id="text129">petroleum engineering</text></g></g><g
             id="text_19"><text
               style="font-style:normal;font-variant:normal;font-weight:normal;font-stretch:normal;font-size:14.5444px;line-height:normal;font-family:Arial, sans-serif;text-anchor:middle;fill:#262626"
               x="12.92625"
               y="140.256"
               transform="rotate(-90,12.92625,140.256)"
               id="text133"><tspan
                 style="font-style:normal;font-variant:normal;font-weight:bold;font-stretch:normal;font-size:14.5444px;font-family:Arial, sans-serif;-inkscape-font-specification:'Arial, sans-serif Bold'"
                 id="tspan1986">University Major</tspan></text></g></g><g
           id="patch_3"><path
             d="M 175.02375,261.216 H 338.27861 V 241.46743 H 175.02375 Z"
             clip-path="url(#pe53f47d28c)"
             style="fill:#acaffa;stroke:#ffffff;stroke-linejoin:miter"
             id="path137" /></g><g
           id="patch_4"><path
             d="M 175.02375,236.53029 H 338.27861 V 216.78171 H 175.02375 Z"
             clip-path="url(#pe53f47d28c)"
             style="fill:#acaffa;stroke:#ffffff;stroke-linejoin:miter"
             id="path140" /></g><g
           id="patch_5"><path
             d="M 175.02375,211.84457 H 343.72044 V 192.096 H 175.02375 Z"
             clip-path="url(#pe53f47d28c)"
             style="fill:#acaffa;stroke:#ffffff;stroke-linejoin:miter"
             id="path143" /></g><g
           id="patch_6"><path
             d="M 175.02375,187.15886 H 343.72044 V 167.41029 H 175.02375 Z"
             clip-path="url(#pe53f47d28c)"
             style="fill:#acaffa;stroke:#ffffff;stroke-linejoin:miter"
             id="path146" /></g><g
           id="patch_7"><path
             d="M 175.02375,162.47314 H 351.88318 V 142.72457 H 175.02375 Z"
             clip-path="url(#pe53f47d28c)"
             style="fill:#acaffa;stroke:#ffffff;stroke-linejoin:miter"
             id="path149" /></g><g
           id="patch_8"><path
             d="M 175.02375,137.78743 H 351.88318 V 118.03886 H 175.02375 Z"
             clip-path="url(#pe53f47d28c)"
             style="fill:#acaffa;stroke:#ffffff;stroke-linejoin:miter"
             id="path152" /></g><g
           id="patch_9"><path
             d="m 175.02375,113.10171 h 190.464 V 93.353143 h -190.464 z"
             clip-path="url(#pe53f47d28c)"
             style="fill:#acaffa;stroke:#ffffff;stroke-linejoin:miter"
             id="path155" /></g><g
           id="patch_10"><path
             d="M 175.02375,88.416 H 373.65049 V 68.667429 H 175.02375 Z"
             clip-path="url(#pe53f47d28c)"
             style="fill:#acaffa;stroke:#ffffff;stroke-linejoin:miter"
             id="path158" /></g><g
           id="patch_11"><path
             d="M 175.02375,63.730286 H 379.09232 V 43.981714 H 175.02375 Z"
             clip-path="url(#pe53f47d28c)"
             style="fill:#acaffa;stroke:#ffffff;stroke-linejoin:miter"
             id="path161" /></g><g
           id="patch_12"><path
             d="M 175.02375,39.044571 H 474.32432 V 19.296 H 175.02375 Z"
             clip-path="url(#pe53f47d28c)"
             style="fill:#acaffa;stroke:#ffffff;stroke-linejoin:miter"
             id="path164" /></g><g
           id="LineCollection_1"><path
             d="m 297.46489,251.34171 h 81.62743"
             clip-path="url(#pe53f47d28c)"
             style="fill:none;stroke:#000000;stroke-width:1.5"
             id="path167" /><path
             d="m 281.13941,226.656 h 70.74377"
             clip-path="url(#pe53f47d28c)"
             style="fill:none;stroke:#000000;stroke-width:1.5"
             id="path169" /><path
             d="m 319.23221,201.97029 h 51.69737"
             clip-path="url(#pe53f47d28c)"
             style="fill:none;stroke:#000000;stroke-width:1.5"
             id="path171" /><path
             d="M 260.73255,177.28457 H 471.60341"
             clip-path="url(#pe53f47d28c)"
             style="fill:none;stroke:#000000;stroke-width:1.5"
             id="path173" /><path
             d="m 311.06946,152.59886 h 68.02286"
             clip-path="url(#pe53f47d28c)"
             style="fill:none;stroke:#000000;stroke-width:1.5"
             id="path175" /><path
             d="M 311.06946,127.91314 H 452.55701"
             clip-path="url(#pe53f47d28c)"
             style="fill:none;stroke:#000000;stroke-width:1.5"
             id="path177" /><path
             d="M 292.02306,103.22743 H 392.69689"
             clip-path="url(#pe53f47d28c)"
             style="fill:none;stroke:#000000;stroke-width:1.5"
             id="path179" /><path
             d="M 311.06946,78.541714 H 460.71975"
             clip-path="url(#pe53f47d28c)"
             style="fill:none;stroke:#000000;stroke-width:1.5"
             id="path181" /><path
             d="m 324.67404,53.856 h 95.232"
             clip-path="url(#pe53f47d28c)"
             style="fill:none;stroke:#000000;stroke-width:1.5"
             id="path183" /><path
             d="m 433.51061,29.170286 h 81.62743"
             clip-path="url(#pe53f47d28c)"
             style="fill:none;stroke:#000000;stroke-width:1.5"
             id="path185" /></g><g
           id="patch_13"><path
             d="m 175.02375,273.312 h 357.12"
             style="fill:none;stroke:#262626;stroke-width:0.8;stroke-linecap:square;stroke-linejoin:miter"
             id="path188" /></g></g><g
         id="figure_1-5"
         transform="matrix(0.50581029,0,0,0.50809424,346.00717,217.68254)"><g
           id="patch_1"><path
             d="M 0,306.4295 H 416.72 V 0 H 0 Z"
             style="fill:#ffffff"
             id="path1280" /></g><g
           id="axes_1-2"><g
             id="patch_2-2"><path
               d="M 52.4,273.312 H 409.52 V 7.2 H 52.4 Z"
               style="fill:#ffffff"
               id="path1283" /></g><g
             id="matplotlib.axis_1-6"
             transform="translate(1.3878215e-6,1.0726365e-5)"><g
               id="xtick_1-6"><g
                 id="line2d_1-7"><defs
                   id="defs1287"><path
                     id="path1424"
                     d="M 0,0 V 3.5"
                     style="stroke:#262626;stroke-width:0.8" /></defs><g
                   id="g1291"><use
                     xlink:href="#m82a7dfb568"
                     x="230.96001"
                     y="273.31201"
                     style="fill:#262626;stroke:#262626;stroke-width:0.8"
                     id="use1289" /></g></g><g
                 id="text_1-8"><text
                   style="font-style:normal;font-variant:normal;font-weight:normal;font-stretch:normal;font-size:8px;line-height:normal;font-family:Arial, sans-serif;text-anchor:middle;fill:#262626"
                   x="230.96001"
                   y="286.03824"
                   id="text1294">Engineering</text></g></g><g
               id="text_2-4"
               transform="translate(-2.0728189,33.258229)"><text
                 style="font-style:normal;font-variant:normal;font-weight:normal;font-stretch:normal;font-size:17.7532px;line-height:normal;font-family:Arial, sans-serif;text-anchor:middle;fill:#262626"
                 x="226.94482"
                 y="312.95154"
                 id="text1298"><tspan
                   style="font-style:normal;font-variant:normal;font-weight:bold;font-stretch:normal;font-family:Arial, sans-serif;-inkscape-font-specification:'Arial, sans-serif Bold'"
                   id="tspan1990">University Major Categories</tspan></text></g></g><g
             id="matplotlib.axis_2-1"><g
               id="ytick_1-7"><g
                 id="line2d_2-1"><defs
                   id="defs1303"><path
                     id="path1436"
                     d="M 0,0 H -3.5"
                     style="stroke:#262626;stroke-width:0.8" /></defs><g
                   id="g1307"><use
                     xlink:href="#m9b6c65fe31"
                     x="52.400002"
                     y="234.336"
                     style="fill:#262626;stroke:#262626;stroke-width:0.8"
                     id="use1305" /></g></g><g
                 id="text_3-8"><text
                   style="font-style:normal;font-variant:normal;font-weight:normal;font-stretch:normal;font-size:8px;line-height:normal;font-family:Arial, sans-serif;text-anchor:end;fill:#262626"
                   x="45.400002"
                   y="237.19913"
                   id="text1310">70000</text></g></g><g
               id="ytick_2-7"><g
                 id="line2d_3-8"><g
                   id="g1316"><use
                     xlink:href="#m9b6c65fe31"
                     x="52.400002"
                     y="180.576"
                     style="fill:#262626;stroke:#262626;stroke-width:0.8"
                     id="use1314" /></g></g><g
                 id="text_4-7"><text
                   style="font-style:normal;font-variant:normal;font-weight:normal;font-stretch:normal;font-size:8px;line-height:normal;font-family:Arial, sans-serif;text-anchor:end;fill:#262626"
                   x="45.400002"
                   y="183.43912"
                   id="text1319">80000</text></g></g><g
               id="ytick_3-7"><g
                 id="line2d_4-4"><g
                   id="g1325"><use
                     xlink:href="#m9b6c65fe31"
                     x="52.400002"
                     y="126.816"
                     style="fill:#262626;stroke:#262626;stroke-width:0.8"
                     id="use1323" /></g></g><g
                 id="text_5-4"><text
                   style="font-style:normal;font-variant:normal;font-weight:normal;font-stretch:normal;font-size:8px;line-height:normal;font-family:Arial, sans-serif;text-anchor:end;fill:#262626"
                   x="45.400002"
                   y="129.67912"
                   id="text1328">90000</text></g></g><g
               id="ytick_4-9"><g
                 id="line2d_5-1"><g
                   id="g1334"><use
                     xlink:href="#m9b6c65fe31"
                     x="52.400002"
                     y="73.056"
                     style="fill:#262626;stroke:#262626;stroke-width:0.8"
                     id="use1332" /></g></g><g
                 id="text_6-5"><text
                   style="font-style:normal;font-variant:normal;font-weight:normal;font-stretch:normal;font-size:8px;line-height:normal;font-family:Arial, sans-serif;text-anchor:end;fill:#262626"
                   x="45.400002"
                   y="75.919128"
                   id="text1337">100000</text></g></g><g
               id="ytick_5-5"><g
                 id="line2d_6-5"><g
                   id="g1343"><use
                     xlink:href="#m9b6c65fe31"
                     x="52.400002"
                     y="19.296"
                     style="fill:#262626;stroke:#262626;stroke-width:0.8"
                     id="use1341" /></g></g><g
                 id="text_7-8"><text
                   style="font-style:normal;font-variant:normal;font-weight:normal;font-stretch:normal;font-size:8px;line-height:normal;font-family:Arial, sans-serif;text-anchor:end;fill:#262626"
                   x="45.400002"
                   y="22.159124"
                   id="text1346">110000</text></g></g><g
               id="text_8-2"><text
                 style="font-style:normal;font-variant:normal;font-weight:normal;font-stretch:normal;font-size:17.7532px;line-height:normal;font-family:Arial, sans-serif;text-anchor:middle;fill:#262626"
                 x="13.02375"
                 y="140.256"
                 transform="rotate(-90,13.02375,140.256)"
                 id="text1350"><tspan
                   style="font-style:normal;font-variant:normal;font-weight:bold;font-stretch:normal;font-size:17.7532px;font-family:Arial, sans-serif;-inkscape-font-specification:'Arial, sans-serif Bold'"
                   id="tspan1992">Median Salary</tspan></text></g></g><g
             id="patch_3-9"><path
               d="m 141.68,234.336 h 178.56 v -26.88 H 141.68 Z"
               clip-path="url(#pf092215aa2)"
               style="fill:#b6b8f0;stroke:#7f7f7f;stroke-width:1.5;stroke-linejoin:miter"
               id="path1354" /></g><g
             id="line2d_7-8"><path
               d="m 230.96,234.336 v 26.88"
               clip-path="url(#pf092215aa2)"
               style="fill:none;stroke:#7f7f7f;stroke-width:1.5;stroke-linecap:round"
               id="path1357" /></g><g
             id="line2d_8"><path
               d="m 230.96,207.456 v 0"
               clip-path="url(#pf092215aa2)"
               style="fill:none;stroke:#7f7f7f;stroke-width:1.5;stroke-linecap:round"
               id="path1360" /></g><g
             id="line2d_9"><path
               d="M 186.32,261.216 H 275.6"
               clip-path="url(#pf092215aa2)"
               style="fill:none;stroke:#7f7f7f;stroke-width:1.5;stroke-linecap:round"
               id="path1363" /></g><g
             id="line2d_10"><path
               d="M 186.32,207.456 H 275.6"
               clip-path="url(#pf092215aa2)"
               style="fill:none;stroke:#7f7f7f;stroke-width:1.5;stroke-linecap:round"
               id="path1366" /></g><g
             id="line2d_11"><defs
               id="defs1370"><path
                 id="path1482"
                 d="M 0,1.414214 0.848528,0 0,-1.414214 -0.848528,0 Z"
                 style="stroke:#7f7f7f;stroke-linejoin:miter" /></defs><g
               clip-path="url(#pf092215aa2)"
               id="g1374"><use
                 xlink:href="#m7f2f862cfc"
                 x="230.96001"
                 y="19.296"
                 style="fill:#7f7f7f;stroke:#7f7f7f;stroke-linejoin:miter"
                 id="use1372" /></g></g><g
             id="line2d_12"><path
               d="M 141.68,218.208 H 320.24"
               clip-path="url(#pf092215aa2)"
               style="fill:none;stroke:#7f7f7f;stroke-width:1.5;stroke-linecap:round"
               id="path1377" /></g><g
             id="patch_4-2"><path
               d="M 52.4,273.312 V 7.2"
               style="fill:none;stroke:#262626;stroke-width:0.8;stroke-linecap:square;stroke-linejoin:miter"
               id="path1380" /></g><g
             id="patch_5-0"><path
               d="M 52.4,273.312 H 409.52"
               style="fill:none;stroke:#262626;stroke-width:0.8;stroke-linecap:square;stroke-linejoin:miter"
               id="path1383" /></g><g
             id="PathCollection_1"><defs
               id="defs1387"><path
                 id="path1494"
                 d="M 0,2.5 C 0.663008,2.5 1.29895,2.236584 1.767767,1.767767 2.236584,1.29895 2.5,0.663008 2.5,0 2.5,-0.663008 2.236584,-1.29895 1.767767,-1.767767 1.29895,-2.236584 0.663008,-2.5 0,-2.5 c -0.663008,0 -1.29895,0.263416 -1.767767,0.732233 C -2.236584,-1.29895 -2.5,-0.663008 -2.5,0 c 0,0.663008 0.263416,1.29895 0.732233,1.767767 C -1.29895,2.236584 -0.663008,2.5 0,2.5 Z"
                 style="stroke:#717171;stroke-width:1.75" /></defs><g
               clip-path="url(#pf092215aa2)"
               id="g1399"><use
                 xlink:href="#m42b085653a"
                 x="230.96001"
                 y="19.296"
                 style="fill:#9699e4;stroke:#717171;stroke-width:1.75"
                 id="use1389" /><use
                 xlink:href="#m42b085653a"
                 x="230.96001"
                 y="207.45599"
                 style="fill:#9699e4;stroke:#717171;stroke-width:1.75"
                 id="use1391" /><use
                 xlink:href="#m42b085653a"
                 x="230.96001"
                 y="218.20799"
                 style="fill:#9699e4;stroke:#717171;stroke-width:1.75"
                 id="use1393" /><use
                 xlink:href="#m42b085653a"
                 x="230.96001"
                 y="234.336"
                 style="fill:#9699e4;stroke:#717171;stroke-width:1.75"
                 id="use1395" /><use
                 xlink:href="#m42b085653a"
                 x="230.96001"
                 y="261.216"
                 style="fill:#9699e4;stroke:#717171;stroke-width:1.75"
                 id="use1397" /></g></g></g></g><g
         id="figure_1-3"
         transform="matrix(0.59783732,0,0,0.41893536,104.31175,240.39021)"><g
           id="patch_1-9"><path
             d="M 0,372.51199 H 398.925 V 0 H 0 Z"
             style="fill:#ffffff"
             id="path1512" /></g><g
           id="axes_1-0"><g
             id="patch_2-5"><path
               d="m 34.605,276.17512 h 357.12 V 10.063125 H 34.605 Z"
               style="fill:#ffffff"
               id="path1515" /></g><g
             id="matplotlib.axis_1-63"><g
               id="xtick_1-63"><g
                 id="line2d_1-0"><defs
                   id="defs1519"><path
                     id="path1792"
                     d="M 0,0 V 3.5"
                     style="stroke:#262626;stroke-width:0.8" /></defs><g
                   id="g1523"><use
                     xlink:href="#m245ce3841c"
                     x="70.317001"
                     y="276.17511"
                     style="fill:#262626;stroke:#262626;stroke-width:0.8"
                     id="use1521" /></g></g><g
                 id="text_1-84"><text
                   style="font-style:normal;font-variant:normal;font-weight:normal;font-stretch:normal;font-size:8px;line-height:normal;font-family:Arial, sans-serif;fill:#262626"
                   transform="rotate(-45,402.17785,110.63677)"
                   id="text1526">engineering</text></g></g><g
               id="xtick_2-0"><g
                 id="line2d_2-4"><g
                   id="g1532"><use
                     xlink:href="#m245ce3841c"
                     x="141.741"
                     y="276.17511"
                     style="fill:#262626;stroke:#262626;stroke-width:0.8"
                     id="use1530" /></g></g><g
                 id="text_2-6"><text
                   style="font-style:normal;font-variant:normal;font-weight:normal;font-stretch:normal;font-size:8px;line-height:normal;font-family:Arial, sans-serif;fill:#262626"
                   transform="rotate(-45,449.74932,52.885225)"
                   id="text1535">law &amp; public policy</text></g></g><g
               id="xtick_3-4"><g
                 id="line2d_3-6"><g
                   id="g1541"><use
                     xlink:href="#m245ce3841c"
                     x="213.16499"
                     y="276.17511"
                     style="fill:#262626;stroke:#262626;stroke-width:0.8"
                     id="use1539" /></g></g><g
                 id="text_3-4"><text
                   style="font-style:normal;font-variant:normal;font-weight:normal;font-stretch:normal;font-size:8px;line-height:normal;font-family:Arial, sans-serif;fill:#262626"
                   transform="rotate(-45,499.04947,-0.68652481)"
                   id="text1544">computers &amp; mathematics</text></g></g><g
               id="xtick_4-3"><g
                 id="line2d_4-8"><g
                   id="g1550"><use
                     xlink:href="#m245ce3841c"
                     x="284.58899"
                     y="276.17511"
                     style="fill:#262626;stroke:#262626;stroke-width:0.8"
                     id="use1548" /></g></g><g
                 id="text_4-4"><text
                   style="font-style:normal;font-variant:normal;font-weight:normal;font-stretch:normal;font-size:8px;line-height:normal;font-family:Arial, sans-serif;fill:#262626"
                   transform="rotate(-45,533.17645,-90.569457)"
                   id="text1553">psychology &amp; social work</text></g></g><g
               id="xtick_5-0"><g
                 id="line2d_5-0"><g
                   id="g1559"><use
                     xlink:href="#m245ce3841c"
                     x="356.013"
                     y="276.17511"
                     style="fill:#262626;stroke:#262626;stroke-width:0.8"
                     id="use1557" /></g></g><g
                 id="text_5-9"><text
                   style="font-style:normal;font-variant:normal;font-weight:normal;font-stretch:normal;font-size:8px;line-height:normal;font-family:Arial, sans-serif;fill:#262626"
                   transform="rotate(-45,549.054,-224.66405)"
                   id="text1562">social science</text></g></g><g
               id="text_6-3"><text
                 style="font-style:normal;font-variant:normal;font-weight:normal;font-stretch:normal;font-size:17.9836px;line-height:normal;font-family:Arial, sans-serif;text-anchor:middle;fill:#262626"
                 x="213.16499"
                 y="363.62823"
                 id="text1566"><tspan
                   style="font-style:normal;font-variant:normal;font-weight:bold;font-stretch:normal;font-size:17.9836px;font-family:Arial, sans-serif;-inkscape-font-specification:'Arial, sans-serif Bold'"
                   id="tspan1994">University Major Categories</tspan></text></g></g><g
             id="matplotlib.axis_2-7"><g
               id="ytick_1-5"><g
                 id="line2d_6-7"><defs
                   id="defs1571"><path
                     id="path1828"
                     d="M 0,0 H -3.5"
                     style="stroke:#262626;stroke-width:0.8" /></defs><g
                   id="g1575"><use
                     xlink:href="#mc122cbf379"
                     x="34.605"
                     y="276.17511"
                     style="fill:#262626;stroke:#262626;stroke-width:0.8"
                     id="use1573" /></g></g><g
                 id="text_7-2"><text
                   style="font-style:normal;font-variant:normal;font-weight:normal;font-stretch:normal;font-size:8px;line-height:normal;font-family:Arial, sans-serif;text-anchor:end;fill:#262626"
                   x="27.605"
                   y="279.03824"
                   id="text1578">0</text></g></g><g
               id="ytick_2-9"><g
                 id="line2d_7-7"><g
                   id="g1584"><use
                     xlink:href="#mc122cbf379"
                     x="34.605"
                     y="222.95273"
                     style="fill:#262626;stroke:#262626;stroke-width:0.8"
                     id="use1582" /></g></g><g
                 id="text_8-5"><text
                   style="font-style:normal;font-variant:normal;font-weight:normal;font-stretch:normal;font-size:8px;line-height:normal;font-family:Arial, sans-serif;text-anchor:end;fill:#262626"
                   x="27.605"
                   y="225.81586"
                   id="text1587">5</text></g></g><g
               id="ytick_3-6"><g
                 id="line2d_8-5"><g
                   id="g1593"><use
                     xlink:href="#mc122cbf379"
                     x="34.605"
                     y="169.73033"
                     style="fill:#262626;stroke:#262626;stroke-width:0.8"
                     id="use1591" /></g></g><g
                 id="text_9-3"><text
                   style="font-style:normal;font-variant:normal;font-weight:normal;font-stretch:normal;font-size:8px;line-height:normal;font-family:Arial, sans-serif;text-anchor:end;fill:#262626"
                   x="27.605"
                   y="172.59344"
                   id="text1596">10</text></g></g><g
               id="ytick_4-0"><g
                 id="line2d_9-4"><g
                   id="g1602"><use
                     xlink:href="#mc122cbf379"
                     x="34.605"
                     y="116.50793"
                     style="fill:#262626;stroke:#262626;stroke-width:0.8"
                     id="use1600" /></g></g><g
                 id="text_10-8"><text
                   style="font-style:normal;font-variant:normal;font-weight:normal;font-stretch:normal;font-size:8px;line-height:normal;font-family:Arial, sans-serif;text-anchor:end;fill:#262626"
                   x="27.605"
                   y="119.37105"
                   id="text1605">15</text></g></g><g
               id="ytick_5-55"><g
                 id="line2d_10-5"><g
                   id="g1611"><use
                     xlink:href="#mc122cbf379"
                     x="34.605"
                     y="63.285526"
                     style="fill:#262626;stroke:#262626;stroke-width:0.8"
                     id="use1609" /></g></g><g
                 id="text_11-4"><text
                   style="font-style:normal;font-variant:normal;font-weight:normal;font-stretch:normal;font-size:8px;line-height:normal;font-family:Arial, sans-serif;text-anchor:end;fill:#262626"
                   x="27.605"
                   y="66.148651"
                   id="text1614">20</text></g></g><g
               id="ytick_6-2"><g
                 id="line2d_11-1"><g
                   id="g1620"><use
                     xlink:href="#mc122cbf379"
                     x="34.605"
                     y="10.063125"
                     style="fill:#262626;stroke:#262626;stroke-width:0.8"
                     id="use1618" /></g></g><g
                 id="text_12-9"><text
                   style="font-style:normal;font-variant:normal;font-weight:normal;font-stretch:normal;font-size:8px;line-height:normal;font-family:Arial, sans-serif;text-anchor:end;fill:#262626"
                   x="27.605"
                   y="12.92625"
                   id="text1623">25</text></g></g><g
               id="text_13-2"><text
                 style="font-style:normal;font-variant:normal;font-weight:normal;font-stretch:normal;font-size:17.9836px;line-height:normal;font-family:Arial, sans-serif;text-anchor:middle;fill:#262626"
                 x="13.02375"
                 y="143.11913"
                 transform="rotate(-90,13.02375,143.11912)"
                 id="text1627"><tspan
                   style="font-style:normal;font-variant:normal;font-weight:bold;font-stretch:normal;font-size:17.9836px;font-family:Arial, sans-serif;-inkscape-font-specification:'Arial, sans-serif Bold'"
                   id="tspan1996">Unemployment Rate %</tspan></text></g></g><g
             id="PolyCollection_1"><defs
               id="defs1632"><path
                 id="path1870"
                 d="m 70.897072,-155.76784 h -1.160144 l -0.07888,-1.92346 -0.08668,-1.92346 -0.09478,-1.92346 -0.103123,-1.92345 -0.111639,-1.92346 -0.120241,-1.92346 -0.128835,-1.92346 -0.137316,-1.92345 -0.145568,-1.92346 -0.15347,-1.92346 -0.160897,-1.92346 -0.167712,-1.92345 -0.173786,-1.92346 -0.178987,-1.92346 -0.183186,-1.92346 -0.186266,-1.92345 -0.188116,-1.92346 -0.18864,-1.92346 -0.18776,-1.92346 -0.185417,-1.92345 -0.181572,-1.92346 -0.176211,-1.92346 -0.169347,-1.92346 -0.161017,-1.92345 -0.151286,-1.92346 -0.140245,-1.92346 -0.128013,-1.92346 -0.114727,-1.92345 -0.100555,-1.92346 -0.08567,-1.92346 -0.07028,-1.92346 -0.05458,-1.92345 -0.03879,-1.92346 -0.02313,-1.92346 -0.0078,-1.92346 0.007,-1.92345 0.02105,-1.92346 0.0342,-1.92346 0.04629,-1.92346 0.05718,-1.92345 0.06679,-1.92346 0.07503,-1.92346 0.08186,-1.92346 0.08727,-1.92345 0.09128,-1.92346 0.09394,-1.92346 0.09533,-1.92346 0.09554,-1.92345 0.09471,-1.92346 0.09297,-1.92346 0.09048,-1.92346 0.0874,-1.92345 0.0839,-1.92346 0.08016,-1.92346 0.07633,-1.92346 0.07257,-1.92346 0.06903,-1.92345 0.06583,-1.92346 0.06309,-1.92346 0.06088,-1.92345 0.05929,-1.92346 0.05835,-1.92346 0.05808,-1.92346 0.05848,-1.92346 0.05954,-1.92345 0.0612,-1.92346 0.0634,-1.92346 0.06608,-1.92346 0.06915,-1.92345 0.0725,-1.92346 0.07604,-1.92346 0.07966,-1.92346 0.08327,-1.92345 0.08675,-1.92346 0.09002,-1.92346 0.09299,-1.92346 0.09558,-1.92345 0.09773,-1.92346 0.09938,-1.92346 0.100497,-1.92346 0.101053,-1.92345 0.101035,-1.92346 0.100443,-1.92346 0.09929,-1.92346 0.0976,-1.92345 0.0954,-1.92346 0.09273,-1.92346 0.08965,-1.92346 0.0862,-1.92345 0.08244,-1.92346 0.07843,-1.92346 0.07422,-1.92346 0.06988,-1.92345 0.06545,-1.92346 0.06099,-1.92346 0.05656,-1.92346 0.05218,-1.92345 0.04792,-1.92346 0.04378,-1.92346 h 0.662536 v 0 l 0.04378,1.92346 0.04792,1.92346 0.05218,1.92345 0.05656,1.92346 0.06099,1.92346 0.06545,1.92346 0.06988,1.92345 0.07422,1.92346 0.07843,1.92346 0.08244,1.92346 0.0862,1.92345 0.08965,1.92346 0.09273,1.92346 0.0954,1.92346 0.0976,1.92345 0.09929,1.92346 0.100443,1.92346 0.101035,1.92346 0.101053,1.92345 0.100497,1.92346 0.09938,1.92346 0.09773,1.92346 0.09558,1.92345 0.09299,1.92346 0.09002,1.92346 0.08675,1.92346 0.08327,1.92345 0.07966,1.92346 0.07604,1.92346 0.0725,1.92346 0.06915,1.92345 0.06608,1.92346 0.0634,1.92346 0.0612,1.92346 0.05954,1.92345 0.05848,1.92346 0.05808,1.92346 0.05835,1.92346 0.05929,1.92346 0.06088,1.92345 0.06308,1.92346 0.06583,1.92346 0.06903,1.92345 0.07257,1.92346 0.07633,1.92346 0.08016,1.92346 0.0839,1.92346 0.0874,1.92345 0.09048,1.92346 0.09297,1.92346 0.09471,1.92346 0.09554,1.92345 0.09533,1.92346 0.09394,1.92346 0.09128,1.92346 0.08727,1.92345 0.08186,1.92346 0.07503,1.92346 0.06679,1.92346 0.05718,1.92345 0.04629,1.92346 0.0342,1.92346 0.02105,1.92346 0.007,1.92345 -0.0078,1.92346 -0.02313,1.92346 -0.03879,1.92346 -0.05458,1.92345 -0.07028,1.92346 -0.08567,1.92346 -0.100555,1.92346 -0.114727,1.92345 -0.128013,1.92346 -0.140245,1.92346 -0.151286,1.92346 -0.161017,1.92345 -0.169347,1.92346 -0.176211,1.92346 -0.181572,1.92346 -0.185417,1.92345 -0.18776,1.92346 -0.18864,1.92346 -0.188116,1.92346 -0.186266,1.92345 -0.183186,1.92346 -0.178987,1.92346 -0.173786,1.92346 -0.167712,1.92345 -0.160897,1.92346 -0.15347,1.92346 -0.145568,1.92346 -0.137316,1.92345 -0.128835,1.92346 -0.120241,1.92346 -0.111639,1.92346 -0.103123,1.92345 -0.09478,1.92346 -0.08668,1.92346 z"
                 style="stroke:#6f6f6f;stroke-width:1.5" /></defs><g
               clip-path="url(#p768935dd7a)"
               id="g1636"><use
                 xlink:href="#m14ff2a773f"
                 x="0"
                 y="372.51199"
                 style="fill:#abc9ea;stroke:#6f6f6f;stroke-width:1.5"
                 id="use1634" /></g></g><g
             id="PolyCollection_2"><defs
               id="defs1640"><path
                 id="path1876"
                 d="m 142.49376,-192.33055 h -1.50552 l -0.0901,-1.15641 -0.0979,-1.15642 -0.10597,-1.15641 -0.11429,-1.15642 -0.12278,-1.15642 -0.13138,-1.15641 -0.14003,-1.15642 -0.14866,-1.15642 -0.15718,-1.15641 -0.16553,-1.15642 -0.1736,-1.15641 -0.18132,-1.15642 -0.18861,-1.15642 -0.19536,-1.15641 -0.20151,-1.15642 -0.20698,-1.15641 -0.21166,-1.15642 -0.21554,-1.15642 -0.2185,-1.15641 -0.22055,-1.15642 -0.22161,-1.15641 -0.22168,-1.15642 -0.22073,-1.15642 -0.21876,-1.15641 -0.21581,-1.15642 -0.21187,-1.15642 -0.20702,-1.15641 -0.20127,-1.15642 -0.19473,-1.15641 -0.18743,-1.15642 -0.17947,-1.15642 -0.17093,-1.15641 -0.16191,-1.15642 -0.15248,-1.15641 -0.14276,-1.15642 -0.13282,-1.15642 -0.12274,-1.15641 -0.1126,-1.15642 -0.10247,-1.15641 -0.0924,-1.15642 -0.0825,-1.15642 -0.0727,-1.15641 -0.063,-1.15642 -0.0536,-1.15642 -0.0443,-1.15641 -0.0352,-1.15642 -0.0263,-1.15641 -0.0174,-1.15642 -0.009,-1.15642 v -1.15641 l 0.009,-1.15642 0.0174,-1.15641 0.0263,-1.15642 0.0352,-1.15642 0.0443,-1.15641 0.0536,-1.15642 0.063,-1.15641 0.0727,-1.15642 0.0825,-1.15642 0.0924,-1.15641 0.10247,-1.15642 0.1126,-1.15642 0.12274,-1.15641 0.13282,-1.15642 0.14276,-1.15641 0.15248,-1.15642 0.16191,-1.15642 0.17093,-1.15641 0.17947,-1.15642 0.18743,-1.15641 0.19473,-1.15642 0.20127,-1.15642 0.20702,-1.15641 0.21187,-1.15642 0.21581,-1.15641 0.21876,-1.15642 0.22073,-1.15642 0.22168,-1.15641 0.22161,-1.15642 0.22055,-1.15642 0.2185,-1.15641 0.21554,-1.15642 0.21166,-1.15641 0.20698,-1.15642 0.20151,-1.15642 0.19536,-1.15641 0.18861,-1.15642 0.18132,-1.15641 0.1736,-1.15642 0.16553,-1.15642 0.15718,-1.15641 0.14866,-1.15642 0.14003,-1.15642 0.13138,-1.15641 0.12278,-1.15642 0.11429,-1.15641 0.10597,-1.15642 0.0979,-1.15642 0.0901,-1.15641 h 1.50552 v 0 l 0.0901,1.15641 0.0979,1.15642 0.10597,1.15642 0.11429,1.15641 0.12278,1.15642 0.13138,1.15641 0.14003,1.15642 0.14866,1.15642 0.15718,1.15641 0.16553,1.15642 0.1736,1.15642 0.18132,1.15641 0.18861,1.15642 0.19536,1.15641 0.20151,1.15642 0.20697,1.15642 0.21167,1.15641 0.21553,1.15642 0.21851,1.15641 0.22055,1.15642 0.22161,1.15642 0.22168,1.15641 0.22072,1.15642 0.21877,1.15642 0.2158,1.15641 0.21188,1.15642 0.20702,1.15641 0.20127,1.15642 0.19473,1.15642 0.18743,1.15641 0.17947,1.15642 0.17093,1.15641 0.16191,1.15642 0.15248,1.15642 0.14276,1.15641 0.13282,1.15642 0.12274,1.15641 0.1126,1.15642 0.10247,1.15642 0.0924,1.15641 0.0825,1.15642 0.0727,1.15642 0.063,1.15641 0.0536,1.15642 0.0443,1.15641 0.0352,1.15642 0.0263,1.15642 0.0174,1.15641 0.009,1.15642 v 1.15641 l -0.009,1.15642 -0.0174,1.15642 -0.0263,1.15641 -0.0352,1.15642 -0.0443,1.15641 -0.0536,1.15642 -0.063,1.15642 -0.0727,1.15641 -0.0825,1.15642 -0.0924,1.15642 -0.10247,1.15641 -0.1126,1.15642 -0.12274,1.15641 -0.13282,1.15642 -0.14276,1.15642 -0.15248,1.15641 -0.16191,1.15642 -0.17093,1.15641 -0.17947,1.15642 -0.18743,1.15642 -0.19473,1.15641 -0.20127,1.15642 -0.20702,1.15641 -0.21188,1.15642 -0.2158,1.15642 -0.21877,1.15641 -0.22072,1.15642 -0.22168,1.15642 -0.22161,1.15641 -0.22055,1.15642 -0.21851,1.15641 -0.21553,1.15642 -0.21167,1.15642 -0.20697,1.15641 -0.20151,1.15642 -0.19536,1.15641 -0.18861,1.15642 -0.18132,1.15642 -0.1736,1.15641 -0.16553,1.15642 -0.15718,1.15641 -0.14866,1.15642 -0.14003,1.15642 -0.13138,1.15641 -0.12278,1.15642 -0.11429,1.15642 -0.10597,1.15641 -0.0979,1.15642 z"
                 style="stroke:#6f6f6f;stroke-width:1.5" /></defs><g
               clip-path="url(#p768935dd7a)"
               id="g1644"><use
                 xlink:href="#m713b318697"
                 x="0"
                 y="372.51199"
                 style="fill:#efb792;stroke:#6f6f6f;stroke-width:1.5"
                 id="use1642" /></g></g><g
             id="PolyCollection_3"><defs
               id="defs1648"><path
                 id="path1882"
                 d="m 214.02257,-182.71001 h -1.71514 l -0.12146,-1.11332 -0.13427,-1.11332 -0.1477,-1.11331 -0.16168,-1.11332 -0.1761,-1.11332 -0.19084,-1.11332 -0.20577,-1.11331 -0.22069,-1.11332 -0.23547,-1.11332 -0.24989,-1.11332 -0.26372,-1.11332 -0.27678,-1.11331 -0.28881,-1.11332 -0.2996,-1.11332 -0.3089,-1.11332 -0.31652,-1.11331 -0.32221,-1.11332 -0.32582,-1.11332 -0.32714,-1.11332 -0.32607,-1.11332 -0.32246,-1.11331 -0.31628,-1.11332 -0.30748,-1.11332 -0.29606,-1.11332 -0.28212,-1.11332 -0.26573,-1.11331 -0.24706,-1.11332 -0.22632,-1.11332 -0.20372,-1.11332 -0.17956,-1.11331 -0.15415,-1.11332 -0.12782,-1.11332 -0.10092,-1.11332 -0.0738,-1.11332 -0.0469,-1.11331 -0.0206,-1.11332 0.005,-1.11332 0.0292,-1.11332 0.0519,-1.11331 0.0728,-1.11332 0.0917,-1.11332 0.1084,-1.11332 0.12279,-1.11332 0.13479,-1.11331 0.14438,-1.11332 0.1516,-1.11332 0.15654,-1.11332 0.15932,-1.11332 0.16015,-1.11331 0.15922,-1.11332 0.15678,-1.11332 0.15311,-1.11332 0.14848,-1.11331 0.14321,-1.11332 0.13755,-1.11332 0.13181,-1.11332 0.12624,-1.11332 0.12109,-1.11331 0.11656,-1.11332 0.11284,-1.11332 0.11007,-1.11332 0.10833,-1.11331 0.10771,-1.11332 0.10822,-1.11332 0.10982,-1.11332 0.11248,-1.11332 0.11611,-1.11331 0.12057,-1.11332 0.12575,-1.11332 0.13145,-1.11332 0.13753,-1.11332 0.1438,-1.11331 0.15005,-1.11332 0.15615,-1.11332 0.16188,-1.11332 0.16711,-1.11331 0.17169,-1.11332 0.17549,-1.11332 0.17844,-1.11332 0.18043,-1.11332 0.18142,-1.11331 0.18139,-1.11332 0.18032,-1.11332 0.17825,-1.11332 0.1752,-1.11331 0.17123,-1.11332 0.16641,-1.11332 0.16085,-1.11332 0.1546,-1.11332 0.1478,-1.11331 0.14054,-1.11332 0.13292,-1.11332 0.12505,-1.11332 0.11703,-1.11332 0.10898,-1.11331 0.10094,-1.11332 0.093,-1.11332 0.0853,-1.11332 0.0779,-1.11331 h 1.16094 v 0 l 0.0778,1.11331 0.0853,1.11332 0.093,1.11332 0.10094,1.11332 0.10898,1.11331 0.11703,1.11332 0.12505,1.11332 0.13292,1.11332 0.14054,1.11332 0.1478,1.11331 0.1546,1.11332 0.16085,1.11332 0.16641,1.11332 0.17123,1.11332 0.1752,1.11331 0.17825,1.11332 0.18032,1.11332 0.18139,1.11332 0.18142,1.11331 0.18043,1.11332 0.17844,1.11332 0.17549,1.11332 0.17169,1.11332 0.16711,1.11331 0.16188,1.11332 0.15615,1.11332 0.15005,1.11332 0.1438,1.11331 0.13753,1.11332 0.13145,1.11332 0.12575,1.11332 0.12057,1.11332 0.11611,1.11331 0.11248,1.11332 0.10982,1.11332 0.10822,1.11332 0.10771,1.11332 0.10833,1.11331 0.11006,1.11332 0.11285,1.11332 0.11656,1.11332 0.12109,1.11331 0.12624,1.11332 0.13181,1.11332 0.13755,1.11332 0.14321,1.11332 0.14848,1.11331 0.15311,1.11332 0.15678,1.11332 0.15922,1.11332 0.16015,1.11331 0.15932,1.11332 0.15654,1.11332 0.1516,1.11332 0.14437,1.11332 0.13479,1.11331 0.1228,1.11332 0.1084,1.11332 0.0917,1.11332 0.0728,1.11332 0.0519,1.11331 0.0292,1.11332 0.005,1.11332 -0.0205,1.11332 -0.0469,1.11331 -0.0738,1.11332 -0.10092,1.11332 -0.12782,1.11332 -0.15415,1.11332 -0.17956,1.11331 -0.20372,1.11332 -0.22632,1.11332 -0.24706,1.11332 -0.26573,1.11331 -0.28212,1.11332 -0.29606,1.11332 -0.30748,1.11332 -0.31628,1.11332 -0.32246,1.11331 -0.32607,1.11332 -0.32714,1.11332 -0.32582,1.11332 -0.32221,1.11332 -0.31652,1.11331 -0.3089,1.11332 -0.2996,1.11332 -0.28881,1.11332 -0.27678,1.11331 -0.26372,1.11332 -0.24989,1.11332 -0.23547,1.11332 -0.2207,1.11332 -0.20576,1.11331 -0.19084,1.11332 -0.1761,1.11332 -0.16168,1.11332 -0.1477,1.11331 -0.13427,1.11332 z"
                 style="stroke:#6f6f6f;stroke-width:1.5" /></defs><g
               clip-path="url(#p768935dd7a)"
               id="g1652"><use
                 xlink:href="#m19982b1c82"
                 x="0"
                 y="372.51199"
                 style="fill:#98daa7;stroke:#6f6f6f;stroke-width:1.5"
                 id="use1650" /></g></g><g
             id="line2d_12-4"><path
               d="M 70.317,155.53916 V 87.526831"
               clip-path="url(#p768935dd7a)"
               style="fill:none;stroke:#6f6f6f;stroke-width:1.5;stroke-linecap:round"
               id="path1655" /></g><g
             id="line2d_13"><path
               d="M 70.317,153.45847 V 119.4523"
               clip-path="url(#p768935dd7a)"
               style="fill:none;stroke:#6f6f6f;stroke-width:4.5;stroke-linecap:round"
               id="path1658" /></g><g
             id="line2d_14"><path
               d="M 141.741,139.47201 V 106.40568"
               clip-path="url(#p768935dd7a)"
               style="fill:none;stroke:#6f6f6f;stroke-width:1.5;stroke-linecap:round"
               id="path1661" /></g><g
             id="line2d_15"><path
               d="M 141.741,131.20542 V 114.67226"
               clip-path="url(#p768935dd7a)"
               style="fill:none;stroke:#6f6f6f;stroke-width:4.5;stroke-linecap:round"
               id="path1664" /></g><g
             id="line2d_16"><path
               d="M 213.165,154.84658 V 114.5389"
               clip-path="url(#p768935dd7a)"
               style="fill:none;stroke:#6f6f6f;stroke-width:1.5;stroke-linecap:round"
               id="path1667" /></g><g
             id="line2d_17"><path
               d="M 213.165,151.90398 V 131.75014"
               clip-path="url(#p768935dd7a)"
               style="fill:none;stroke:#6f6f6f;stroke-width:4.5;stroke-linecap:round"
               id="path1670" /></g><g
             id="line2d_18"><path
               d="m 275.661,117.52107 h 17.856"
               clip-path="url(#p768935dd7a)"
               style="fill:none;stroke:#6f6f6f;stroke-width:1.5;stroke-linecap:round"
               id="path1673" /></g><g
             id="line2d_19"><path
               d="m 347.085,155.40431 h 17.856"
               clip-path="url(#p768935dd7a)"
               style="fill:none;stroke:#6f6f6f;stroke-width:1.5;stroke-linecap:round"
               id="path1676" /></g><g
             id="patch_3-5"><path
               d="M 34.605,276.17512 V 10.063125"
               style="fill:none;stroke:#262626;stroke-width:0.8;stroke-linecap:square;stroke-linejoin:miter"
               id="path1679" /></g><g
             id="patch_4-8"><path
               d="m 34.605,276.17512 h 357.12"
               style="fill:none;stroke:#262626;stroke-width:0.8;stroke-linecap:square;stroke-linejoin:miter"
               id="path1682" /></g><g
             id="PathCollection_1-6"><defs
               id="defs1686"><path
                 id="path1908"
                 d="M 0,1.5 C 0.397805,1.5 0.77937,1.341951 1.06066,1.06066 1.341951,0.77937 1.5,0.397805 1.5,0 1.5,-0.397805 1.341951,-0.77937 1.06066,-1.06066 0.77937,-1.341951 0.397805,-1.5 0,-1.5 c -0.397805,0 -0.77937,0.158049 -1.06066,0.43934 C -1.341951,-0.77937 -1.5,-0.397805 -1.5,0 c 0,0.397805 0.158049,0.77937 0.43934,1.06066 C -0.77937,1.341951 -0.397805,1.5 0,1.5 Z"
                 style="stroke:#6f6f6f" /></defs><g
               clip-path="url(#p768935dd7a)"
               id="g1690"><use
                 xlink:href="#m0697509a66"
                 x="70.317001"
                 y="151.37778"
                 style="fill:#ffffff;stroke:#6f6f6f"
                 id="use1688" /></g></g><g
             id="PathCollection_2"><g
               clip-path="url(#p768935dd7a)"
               id="g1695"><use
                 xlink:href="#m0697509a66"
                 x="141.741"
                 y="122.93884"
                 style="fill:#ffffff;stroke:#6f6f6f"
                 id="use1693" /></g></g><g
             id="PathCollection_3"><g
               clip-path="url(#p768935dd7a)"
               id="g1700"><use
                 xlink:href="#m0697509a66"
                 x="213.16499"
                 y="148.96138"
                 style="fill:#ffffff;stroke:#6f6f6f"
                 id="use1698" /></g></g><g
             id="PathCollection_4"><defs
               id="defs1704"><path
                 id="path1920"
                 d="M 0,2.5 C 0.663008,2.5 1.29895,2.236584 1.767767,1.767767 2.236584,1.29895 2.5,0.663008 2.5,0 2.5,-0.663008 2.236584,-1.29895 1.767767,-1.767767 1.29895,-2.236584 0.663008,-2.5 0,-2.5 c -0.663008,0 -1.29895,0.263416 -1.767767,0.732233 C -2.236584,-1.29895 -2.5,-0.663008 -2.5,0 c 0,0.663008 0.263416,1.29895 0.732233,1.767767 C -1.29895,2.236584 -0.663008,2.5 0,2.5 Z" /></defs><g
               clip-path="url(#p768935dd7a)"
               id="g1708"><use
                 xlink:href="#C0_0_371572a798"
                 x="70.317001"
                 y="87.526833"
                 style="fill:#a1c9f4;stroke:#7a7a7a;stroke-width:2"
                 id="use1706" /></g><g
               clip-path="url(#p768935dd7a)"
               id="g1712"><use
                 xlink:href="#C0_0_371572a798"
                 x="64.406807"
                 y="151.37778"
                 style="fill:#a1c9f4;stroke:#7a7a7a;stroke-width:2"
                 id="use1710" /></g><g
               clip-path="url(#p768935dd7a)"
               id="g1716"><use
                 xlink:href="#C0_0_371572a798"
                 x="70.317001"
                 y="155.53915"
                 style="fill:#a1c9f4;stroke:#7a7a7a;stroke-width:2"
                 id="use1714" /></g></g><g
             id="PathCollection_5"><defs
               id="defs1720"><path
                 id="path1930"
                 d="M 0,2.5 C 0.663008,2.5 1.29895,2.236584 1.767767,1.767767 2.236584,1.29895 2.5,0.663008 2.5,0 2.5,-0.663008 2.236584,-1.29895 1.767767,-1.767767 1.29895,-2.236584 0.663008,-2.5 0,-2.5 c -0.663008,0 -1.29895,0.263416 -1.767767,0.732233 C -2.236584,-1.29895 -2.5,-0.663008 -2.5,0 c 0,0.663008 0.263416,1.29895 0.732233,1.767767 C -1.29895,2.236584 -0.663008,2.5 0,2.5 Z" /></defs><g
               clip-path="url(#p768935dd7a)"
               id="g1724"><use
                 xlink:href="#C1_0_170cae5e2e"
                 x="141.741"
                 y="106.40568"
                 style="fill:#ffb482;stroke:#737373;stroke-width:2"
                 id="use1722" /></g><g
               clip-path="url(#p768935dd7a)"
               id="g1728"><use
                 xlink:href="#C1_0_170cae5e2e"
                 x="141.741"
                 y="139.47202"
                 style="fill:#ffb482;stroke:#737373;stroke-width:2"
                 id="use1726" /></g></g><g
             id="PathCollection_6"><defs
               id="defs1732"><path
                 id="path1938"
                 d="M 0,2.5 C 0.663008,2.5 1.29895,2.236584 1.767767,1.767767 2.236584,1.29895 2.5,0.663008 2.5,0 2.5,-0.663008 2.236584,-1.29895 1.767767,-1.767767 1.29895,-2.236584 0.663008,-2.5 0,-2.5 c -0.663008,0 -1.29895,0.263416 -1.767767,0.732233 C -2.236584,-1.29895 -2.5,-0.663008 -2.5,0 c 0,0.663008 0.263416,1.29895 0.732233,1.767767 C -1.29895,2.236584 -0.663008,2.5 0,2.5 Z" /></defs><g
               clip-path="url(#p768935dd7a)"
               id="g1736"><use
                 xlink:href="#C2_0_96cc126292"
                 x="213.16499"
                 y="114.5389"
                 style="fill:#8de5a1;stroke:#6f6f6f;stroke-width:2"
                 id="use1734" /></g><g
               clip-path="url(#p768935dd7a)"
               id="g1740"><use
                 xlink:href="#C2_0_96cc126292"
                 x="209.18546"
                 y="148.96138"
                 style="fill:#8de5a1;stroke:#6f6f6f;stroke-width:2"
                 id="use1738" /></g><g
               clip-path="url(#p768935dd7a)"
               id="g1744"><use
                 xlink:href="#C2_0_96cc126292"
                 x="213.16499"
                 y="154.84659"
                 style="fill:#8de5a1;stroke:#6f6f6f;stroke-width:2"
                 id="use1742" /></g></g><g
             id="PathCollection_7"><defs
               id="defs1748"><path
                 id="path1948"
                 d="M 0,2.5 C 0.663008,2.5 1.29895,2.236584 1.767767,1.767767 2.236584,1.29895 2.5,0.663008 2.5,0 2.5,-0.663008 2.236584,-1.29895 1.767767,-1.767767 1.29895,-2.236584 0.663008,-2.5 0,-2.5 c -0.663008,0 -1.29895,0.263416 -1.767767,0.732233 C -2.236584,-1.29895 -2.5,-0.663008 -2.5,0 c 0,0.663008 0.263416,1.29895 0.732233,1.767767 C -1.29895,2.236584 -0.663008,2.5 0,2.5 Z"
                 style="stroke:#7b7b7b;stroke-width:2" /></defs><g
               clip-path="url(#p768935dd7a)"
               id="g1752"><use
                 xlink:href="#m9491f1f2da"
                 x="284.58899"
                 y="117.52107"
                 style="fill:#ff9f9b;stroke:#7b7b7b;stroke-width:2"
                 id="use1750" /></g></g><g
             id="PathCollection_8"><defs
               id="defs1756"><path
                 id="path1954"
                 d="M 0,2.5 C 0.663008,2.5 1.29895,2.236584 1.767767,1.767767 2.236584,1.29895 2.5,0.663008 2.5,0 2.5,-0.663008 2.236584,-1.29895 1.767767,-1.767767 1.29895,-2.236584 0.663008,-2.5 0,-2.5 c -0.663008,0 -1.29895,0.263416 -1.767767,0.732233 C -2.236584,-1.29895 -2.5,-0.663008 -2.5,0 c 0,0.663008 0.263416,1.29895 0.732233,1.767767 C -1.29895,2.236584 -0.663008,2.5 0,2.5 Z"
                 style="stroke:#858585;stroke-width:2" /></defs><g
               clip-path="url(#p768935dd7a)"
               id="g1760"><use
                 xlink:href="#mc40e502d08"
                 x="356.013"
                 y="155.40431"
                 style="fill:#d0bbff;stroke:#858585;stroke-width:2"
                 id="use1758" /></g></g></g></g><text
         xml:space="preserve"
         style="font-weight:bold;font-size:9px;line-height:0px;font-family:Arial, sans-serif;-inkscape-font-specification:'Arial, sans-serif Bold';fill:#000000;stroke-width:0.75"
         x="129.74974"
         y="33.589737"
         id="text1964"><tspan
           sodipodi:role="line"
           id="tspan1962"
           style="stroke-width:0.75"
           x="129.74974"
           y="33.589737" /></text><text
         xml:space="preserve"
         style="font-weight:bold;font-size:12px;line-height:0px;font-family:Arial, sans-serif;-inkscape-font-specification:'Arial, sans-serif Bold';white-space:pre;inline-size:0;fill:#000000;stroke-width:0.75"
         x="137.24974"
         y="26.089737"
         id="text1968"
         transform="translate(-37.499994,7.4999994)"><tspan
           id="tspan1966"
           style="font-size:12px;stroke-width:0.75"
           x="137.24974"
           y="26.089737">a</tspan></text><text
         xml:space="preserve"
         style="font-weight:bold;font-size:12px;line-height:0px;font-family:Arial, sans-serif;-inkscape-font-specification:'Arial, sans-serif Bold';white-space:pre;inline-size:0;fill:#000000;stroke-width:0.75"
         x="122.24975"
         y="221.08974"
         id="text1972"
         transform="translate(-23.291018,1.0898421)"><tspan
           id="tspan1970"
           style="font-size:12px;stroke-width:0.75"
           x="122.24975"
           y="221.08974">b</tspan></text><text
         xml:space="preserve"
         style="font-weight:bold;font-size:12px;line-height:0px;font-family:Arial, sans-serif;-inkscape-font-specification:'Arial, sans-serif Bold';fill:#000000;stroke-width:0.75"
         x="339.74976"
         y="221.08974"
         id="text1976"><tspan
           sodipodi:role="line"
           id="tspan1974"
           style="font-size:12px;stroke-width:0.75"
           x="339.74976"
           y="221.08974">c</tspan></text><text
         xml:space="preserve"
         style="font-weight:bold;font-size:9px;line-height:0px;font-family:Arial, sans-serif;-inkscape-font-specification:'Arial, sans-serif Bold';white-space:pre;inline-size:0;fill:#000000;stroke-width:0.75"
         x="152.24974"
         y="26.089737"
         id="text1980"><tspan
           id="tspan1978"
           style="stroke-width:0.75"
           x="152.24974"
           y="26.089737" /></text></g></g></svg>
