<?xml version="1.0" encoding="utf-8" standalone="no"?>
<!DOCTYPE svg PUBLIC "-//W3C//DTD SVG 1.1//EN"
  "http://www.w3.org/Graphics/SVG/1.1/DTD/svg11.dtd">
<svg xmlns:xlink="http://www.w3.org/1999/xlink" width="398.925pt" height="372.511986pt" viewBox="0 0 398.925 372.511986" xmlns="http://www.w3.org/2000/svg" version="1.1">
 <metadata>
  <rdf:RDF xmlns:dc="http://purl.org/dc/elements/1.1/" xmlns:cc="http://creativecommons.org/ns#" xmlns:rdf="http://www.w3.org/1999/02/22-rdf-syntax-ns#">
   <cc:Work>
    <dc:type rdf:resource="http://purl.org/dc/dcmitype/StillImage"/>
    <dc:date>2022-11-27T21:55:25.128903</dc:date>
    <dc:format>image/svg+xml</dc:format>
    <dc:creator>
     <cc:Agent>
      <dc:title>Matplotlib v3.6.2, https://matplotlib.org/</dc:title>
     </cc:Agent>
    </dc:creator>
   </cc:Work>
  </rdf:RDF>
 </metadata>
 <defs>
  <style type="text/css">*{stroke-linejoin: round; stroke-linecap: butt}</style>
 </defs>
 <g id="figure_1">
  <g id="patch_1">
   <path d="M 0 372.511986 
L 398.925 372.511986 
L 398.925 -0 
L 0 -0 
z
" style="fill: #ffffff"/>
  </g>
  <g id="axes_1">
   <g id="patch_2">
    <path d="M 34.605 276.175125 
L 391.725 276.175125 
L 391.725 10.063125 
L 34.605 10.063125 
z
" style="fill: #ffffff"/>
   </g>
   <g id="matplotlib.axis_1">
    <g id="xtick_1">
     <g id="line2d_1">
      <defs>
       <path id="m245ce3841c" d="M 0 0 
L 0 3.5 
" style="stroke: #262626; stroke-width: 0.8"/>
      </defs>
      <g>
       <use xlink:href="#m245ce3841c" x="70.317" y="276.175125" style="fill: #262626; stroke: #262626; stroke-width: 0.8"/>
      </g>
     </g>
     <g id="text_1">
      <text style="fill: #262626; font: 8px 'Arial', sans-serif" transform="translate(39.563158 316.787446) rotate(-45)">engineering</text>
     </g>
    </g>
    <g id="xtick_2">
     <g id="line2d_2">
      <g>
       <use xlink:href="#m245ce3841c" x="141.741" y="276.175125" style="fill: #262626; stroke: #262626; stroke-width: 0.8"/>
      </g>
     </g>
     <g id="text_2">
      <text style="fill: #262626; font: 8px 'Arial', sans-serif" transform="translate(94.333026 333.510521) rotate(-45)">law &amp; public policy</text>
     </g>
    </g>
    <g id="xtick_3">
     <g id="line2d_3">
      <g>
       <use xlink:href="#m245ce3841c" x="213.165" y="276.175125" style="fill: #262626; stroke: #262626; stroke-width: 0.8"/>
      </g>
     </g>
     <g id="text_3">
      <text style="fill: #262626; font: 8px 'Arial', sans-serif" transform="translate(146.653652 352.680186) rotate(-45)">computers &amp; mathematics</text>
     </g>
    </g>
    <g id="xtick_4">
     <g id="line2d_4">
      <g>
       <use xlink:href="#m245ce3841c" x="284.589" y="276.175125" style="fill: #262626; stroke: #262626; stroke-width: 0.8"/>
      </g>
     </g>
     <g id="text_4">
      <text style="fill: #262626; font: 8px 'Arial', sans-serif" transform="translate(220.206044 350.485503) rotate(-45)">psychology &amp; social work</text>
     </g>
    </g>
    <g id="xtick_5">
     <g id="line2d_5">
      <g>
       <use xlink:href="#m245ce3841c" x="356.013" y="276.175125" style="fill: #262626; stroke: #262626; stroke-width: 0.8"/>
      </g>
     </g>
     <g id="text_5">
      <text style="fill: #262626; font: 8px 'Arial', sans-serif" transform="translate(319.675666 322.437229) rotate(-45)">social science</text>
     </g>
    </g>
    <g id="text_6">
     <text style="fill: #262626; font: 8px 'Arial', sans-serif; text-anchor: middle" x="213.165" y="363.628236" transform="rotate(-0 213.165 363.628236)">University Major Categories</text>
    </g>
   </g>
   <g id="matplotlib.axis_2">
    <g id="ytick_1">
     <g id="line2d_6">
      <defs>
       <path id="mc122cbf379" d="M 0 0 
L -3.5 0 
" style="stroke: #262626; stroke-width: 0.8"/>
      </defs>
      <g>
       <use xlink:href="#mc122cbf379" x="34.605" y="276.175125" style="fill: #262626; stroke: #262626; stroke-width: 0.8"/>
      </g>
     </g>
     <g id="text_7">
      <text style="fill: #262626; font: 8px 'Arial', sans-serif; text-anchor: end" x="27.605" y="279.03825" transform="rotate(-0 27.605 279.03825)">0</text>
     </g>
    </g>
    <g id="ytick_2">
     <g id="line2d_7">
      <g>
       <use xlink:href="#mc122cbf379" x="34.605" y="222.952725" style="fill: #262626; stroke: #262626; stroke-width: 0.8"/>
      </g>
     </g>
     <g id="text_8">
      <text style="fill: #262626; font: 8px 'Arial', sans-serif; text-anchor: end" x="27.605" y="225.81585" transform="rotate(-0 27.605 225.81585)">5</text>
     </g>
    </g>
    <g id="ytick_3">
     <g id="line2d_8">
      <g>
       <use xlink:href="#mc122cbf379" x="34.605" y="169.730325" style="fill: #262626; stroke: #262626; stroke-width: 0.8"/>
      </g>
     </g>
     <g id="text_9">
      <text style="fill: #262626; font: 8px 'Arial', sans-serif; text-anchor: end" x="27.605" y="172.59345" transform="rotate(-0 27.605 172.59345)">10</text>
     </g>
    </g>
    <g id="ytick_4">
     <g id="line2d_9">
      <g>
       <use xlink:href="#mc122cbf379" x="34.605" y="116.507925" style="fill: #262626; stroke: #262626; stroke-width: 0.8"/>
      </g>
     </g>
     <g id="text_10">
      <text style="fill: #262626; font: 8px 'Arial', sans-serif; text-anchor: end" x="27.605" y="119.37105" transform="rotate(-0 27.605 119.37105)">15</text>
     </g>
    </g>
    <g id="ytick_5">
     <g id="line2d_10">
      <g>
       <use xlink:href="#mc122cbf379" x="34.605" y="63.285525" style="fill: #262626; stroke: #262626; stroke-width: 0.8"/>
      </g>
     </g>
     <g id="text_11">
      <text style="fill: #262626; font: 8px 'Arial', sans-serif; text-anchor: end" x="27.605" y="66.14865" transform="rotate(-0 27.605 66.14865)">20</text>
     </g>
    </g>
    <g id="ytick_6">
     <g id="line2d_11">
      <g>
       <use xlink:href="#mc122cbf379" x="34.605" y="10.063125" style="fill: #262626; stroke: #262626; stroke-width: 0.8"/>
      </g>
     </g>
     <g id="text_12">
      <text style="fill: #262626; font: 8px 'Arial', sans-serif; text-anchor: end" x="27.605" y="12.92625" transform="rotate(-0 27.605 12.92625)">25</text>
     </g>
    </g>
    <g id="text_13">
     <text style="fill: #262626; font: 8px 'Arial', sans-serif; text-anchor: middle" x="13.02375" y="143.119125" transform="rotate(-90 13.02375 143.119125)">Unemployment Rate %</text>
    </g>
   </g>
   <g id="PolyCollection_1">
    <defs>
     <path id="m14ff2a773f" d="M 70.897072 -155.767843 
L 69.736928 -155.767843 
L 69.658048 -157.691301 
L 69.57137 -159.614758 
L 69.476591 -161.538216 
L 69.373468 -163.461673 
L 69.261829 -165.385131 
L 69.141588 -167.308589 
L 69.012753 -169.232046 
L 68.875437 -171.155504 
L 68.729869 -173.078961 
L 68.576399 -175.002419 
L 68.415502 -176.925876 
L 68.24779 -178.849334 
L 68.074004 -180.772791 
L 67.895017 -182.696249 
L 67.711831 -184.619706 
L 67.525565 -186.543164 
L 67.337449 -188.466621 
L 67.148809 -190.390079 
L 66.961049 -192.313536 
L 66.775632 -194.236994 
L 66.59406 -196.160452 
L 66.417849 -198.083909 
L 66.248502 -200.007367 
L 66.087485 -201.930824 
L 65.936199 -203.854282 
L 65.795954 -205.777739 
L 65.667941 -207.701197 
L 65.553214 -209.624654 
L 65.452659 -211.548112 
L 65.366987 -213.471569 
L 65.296707 -215.395027 
L 65.242126 -217.318484 
L 65.203334 -219.241942 
L 65.180208 -221.1654 
L 65.172412 -223.088857 
L 65.179405 -225.012315 
L 65.200454 -226.935772 
L 65.234652 -228.85923 
L 65.280939 -230.782687 
L 65.338123 -232.706145 
L 65.404912 -234.629602 
L 65.47994 -236.55306 
L 65.561798 -238.476517 
L 65.649068 -240.399975 
L 65.740349 -242.323432 
L 65.83429 -244.24689 
L 65.929619 -246.170347 
L 66.025163 -248.093805 
L 66.119873 -250.017263 
L 66.212843 -251.94072 
L 66.303322 -253.864178 
L 66.390721 -255.787635 
L 66.474624 -257.711093 
L 66.554781 -259.63455 
L 66.631108 -261.558008 
L 66.703678 -263.481465 
L 66.772705 -265.404923 
L 66.838535 -267.32838 
L 66.90162 -269.251838 
L 66.962502 -271.175295 
L 67.021791 -273.098753 
L 67.080139 -275.02221 
L 67.138219 -276.945668 
L 67.196704 -278.869126 
L 67.256243 -280.792583 
L 67.317441 -282.716041 
L 67.380845 -284.639498 
L 67.446928 -286.562956 
L 67.516073 -288.486413 
L 67.588571 -290.409871 
L 67.66461 -292.333328 
L 67.744272 -294.256786 
L 67.82754 -296.180243 
L 67.914292 -298.103701 
L 68.004314 -300.027158 
L 68.097304 -301.950616 
L 68.192885 -303.874074 
L 68.290614 -305.797531 
L 68.389994 -307.720989 
L 68.490491 -309.644446 
L 68.591544 -311.567904 
L 68.692579 -313.491361 
L 68.793022 -315.414819 
L 68.892311 -317.338276 
L 68.989907 -319.261734 
L 69.085304 -321.185191 
L 69.178037 -323.108649 
L 69.267686 -325.032106 
L 69.353885 -326.955564 
L 69.436325 -328.879021 
L 69.514752 -330.802479 
L 69.588973 -332.725937 
L 69.658849 -334.649394 
L 69.724299 -336.572852 
L 69.785294 -338.496309 
L 69.841853 -340.419767 
L 69.894038 -342.343224 
L 69.941953 -344.266682 
L 69.985732 -346.190139 
L 70.648268 -346.190139 
L 70.648268 -346.190139 
L 70.692047 -344.266682 
L 70.739962 -342.343224 
L 70.792147 -340.419767 
L 70.848706 -338.496309 
L 70.909701 -336.572852 
L 70.975151 -334.649394 
L 71.045027 -332.725937 
L 71.119248 -330.802479 
L 71.197675 -328.879021 
L 71.280115 -326.955564 
L 71.366314 -325.032106 
L 71.455963 -323.108649 
L 71.548696 -321.185191 
L 71.644093 -319.261734 
L 71.741689 -317.338276 
L 71.840978 -315.414819 
L 71.941421 -313.491361 
L 72.042456 -311.567904 
L 72.143509 -309.644446 
L 72.244006 -307.720989 
L 72.343386 -305.797531 
L 72.441115 -303.874074 
L 72.536696 -301.950616 
L 72.629686 -300.027158 
L 72.719708 -298.103701 
L 72.80646 -296.180243 
L 72.889728 -294.256786 
L 72.96939 -292.333328 
L 73.045429 -290.409871 
L 73.117927 -288.486413 
L 73.187072 -286.562956 
L 73.253155 -284.639498 
L 73.316559 -282.716041 
L 73.377757 -280.792583 
L 73.437296 -278.869126 
L 73.495781 -276.945668 
L 73.553861 -275.02221 
L 73.612209 -273.098753 
L 73.671498 -271.175295 
L 73.73238 -269.251838 
L 73.795465 -267.32838 
L 73.861295 -265.404923 
L 73.930322 -263.481465 
L 74.002892 -261.558008 
L 74.079219 -259.63455 
L 74.159376 -257.711093 
L 74.243279 -255.787635 
L 74.330678 -253.864178 
L 74.421157 -251.94072 
L 74.514127 -250.017263 
L 74.608837 -248.093805 
L 74.704381 -246.170347 
L 74.79971 -244.24689 
L 74.893651 -242.323432 
L 74.984932 -240.399975 
L 75.072202 -238.476517 
L 75.15406 -236.55306 
L 75.229088 -234.629602 
L 75.295877 -232.706145 
L 75.353061 -230.782687 
L 75.399348 -228.85923 
L 75.433546 -226.935772 
L 75.454595 -225.012315 
L 75.461588 -223.088857 
L 75.453792 -221.1654 
L 75.430666 -219.241942 
L 75.391874 -217.318484 
L 75.337293 -215.395027 
L 75.267013 -213.471569 
L 75.181341 -211.548112 
L 75.080786 -209.624654 
L 74.966059 -207.701197 
L 74.838046 -205.777739 
L 74.697801 -203.854282 
L 74.546515 -201.930824 
L 74.385498 -200.007367 
L 74.216151 -198.083909 
L 74.03994 -196.160452 
L 73.858368 -194.236994 
L 73.672951 -192.313536 
L 73.485191 -190.390079 
L 73.296551 -188.466621 
L 73.108435 -186.543164 
L 72.922169 -184.619706 
L 72.738983 -182.696249 
L 72.559996 -180.772791 
L 72.38621 -178.849334 
L 72.218498 -176.925876 
L 72.057601 -175.002419 
L 71.904131 -173.078961 
L 71.758563 -171.155504 
L 71.621247 -169.232046 
L 71.492412 -167.308589 
L 71.372171 -165.385131 
L 71.260532 -163.461673 
L 71.157409 -161.538216 
L 71.06263 -159.614758 
L 70.975952 -157.691301 
L 70.897072 -155.767843 
z
" style="stroke: #6f6f6f; stroke-width: 1.5"/>
    </defs>
    <g clip-path="url(#p768935dd7a)">
     <use xlink:href="#m14ff2a773f" x="0" y="372.511986" style="fill: #abc9ea; stroke: #6f6f6f; stroke-width: 1.5"/>
    </g>
   </g>
   <g id="PolyCollection_2">
    <defs>
     <path id="m713b318697" d="M 142.493759 -192.330547 
L 140.988241 -192.330547 
L 140.898183 -193.486963 
L 140.800302 -194.643379 
L 140.694329 -195.799795 
L 140.580039 -196.956211 
L 140.45726 -198.112627 
L 140.325878 -199.269043 
L 140.185846 -200.42546 
L 140.037189 -201.581876 
L 139.880007 -202.738292 
L 139.714483 -203.894708 
L 139.540883 -205.051124 
L 139.35956 -206.20754 
L 139.170954 -207.363956 
L 138.975589 -208.520372 
L 138.774077 -209.676788 
L 138.567105 -210.833205 
L 138.355438 -211.989621 
L 138.139905 -213.146037 
L 137.921396 -214.302453 
L 137.700848 -215.458869 
L 137.479237 -216.615285 
L 137.257561 -217.771701 
L 137.036835 -218.928117 
L 136.818071 -220.084534 
L 136.602265 -221.24095 
L 136.390389 -222.397366 
L 136.183373 -223.553782 
L 135.982096 -224.710198 
L 135.787371 -225.866614 
L 135.599943 -227.02303 
L 135.420474 -228.179446 
L 135.249542 -229.335862 
L 135.087634 -230.492279 
L 134.935147 -231.648695 
L 134.792386 -232.805111 
L 134.65957 -233.961527 
L 134.536833 -235.117943 
L 134.424234 -236.274359 
L 134.321764 -237.430775 
L 134.229356 -238.587191 
L 134.146898 -239.743608 
L 134.074239 -240.900024 
L 134.011209 -242.05644 
L 133.957625 -243.212856 
L 133.913306 -244.369272 
L 133.878083 -245.525688 
L 133.851806 -246.682104 
L 133.834358 -247.83852 
L 133.825655 -248.994936 
L 133.825655 -250.151353 
L 133.834358 -251.307769 
L 133.851806 -252.464185 
L 133.878083 -253.620601 
L 133.913306 -254.777017 
L 133.957625 -255.933433 
L 134.011209 -257.089849 
L 134.074239 -258.246265 
L 134.146898 -259.402681 
L 134.229356 -260.559098 
L 134.321764 -261.715514 
L 134.424234 -262.87193 
L 134.536833 -264.028346 
L 134.65957 -265.184762 
L 134.792386 -266.341178 
L 134.935147 -267.497594 
L 135.087634 -268.65401 
L 135.249542 -269.810427 
L 135.420474 -270.966843 
L 135.599943 -272.123259 
L 135.787371 -273.279675 
L 135.982096 -274.436091 
L 136.183373 -275.592507 
L 136.390389 -276.748923 
L 136.602265 -277.905339 
L 136.818071 -279.061755 
L 137.036835 -280.218172 
L 137.257561 -281.374588 
L 137.479237 -282.531004 
L 137.700848 -283.68742 
L 137.921396 -284.843836 
L 138.139905 -286.000252 
L 138.355438 -287.156668 
L 138.567105 -288.313084 
L 138.774077 -289.469501 
L 138.975589 -290.625917 
L 139.170954 -291.782333 
L 139.35956 -292.938749 
L 139.540883 -294.095165 
L 139.714483 -295.251581 
L 139.880007 -296.407997 
L 140.037189 -297.564413 
L 140.185846 -298.720829 
L 140.325878 -299.877246 
L 140.45726 -301.033662 
L 140.580039 -302.190078 
L 140.694329 -303.346494 
L 140.800302 -304.50291 
L 140.898183 -305.659326 
L 140.988241 -306.815742 
L 142.493759 -306.815742 
L 142.493759 -306.815742 
L 142.583817 -305.659326 
L 142.681698 -304.50291 
L 142.787671 -303.346494 
L 142.901961 -302.190078 
L 143.02474 -301.033662 
L 143.156122 -299.877246 
L 143.296154 -298.720829 
L 143.444811 -297.564413 
L 143.601993 -296.407997 
L 143.767517 -295.251581 
L 143.941117 -294.095165 
L 144.12244 -292.938749 
L 144.311046 -291.782333 
L 144.506411 -290.625917 
L 144.707923 -289.469501 
L 144.914895 -288.313084 
L 145.126562 -287.156668 
L 145.342095 -286.000252 
L 145.560604 -284.843836 
L 145.781152 -283.68742 
L 146.002763 -282.531004 
L 146.224439 -281.374588 
L 146.445165 -280.218172 
L 146.663929 -279.061755 
L 146.879735 -277.905339 
L 147.091611 -276.748923 
L 147.298627 -275.592507 
L 147.499904 -274.436091 
L 147.694629 -273.279675 
L 147.882057 -272.123259 
L 148.061526 -270.966843 
L 148.232458 -269.810427 
L 148.394366 -268.65401 
L 148.546853 -267.497594 
L 148.689614 -266.341178 
L 148.82243 -265.184762 
L 148.945167 -264.028346 
L 149.057766 -262.87193 
L 149.160236 -261.715514 
L 149.252644 -260.559098 
L 149.335102 -259.402681 
L 149.407761 -258.246265 
L 149.470791 -257.089849 
L 149.524375 -255.933433 
L 149.568694 -254.777017 
L 149.603917 -253.620601 
L 149.630194 -252.464185 
L 149.647642 -251.307769 
L 149.656345 -250.151353 
L 149.656345 -248.994936 
L 149.647642 -247.83852 
L 149.630194 -246.682104 
L 149.603917 -245.525688 
L 149.568694 -244.369272 
L 149.524375 -243.212856 
L 149.470791 -242.05644 
L 149.407761 -240.900024 
L 149.335102 -239.743608 
L 149.252644 -238.587191 
L 149.160236 -237.430775 
L 149.057766 -236.274359 
L 148.945167 -235.117943 
L 148.82243 -233.961527 
L 148.689614 -232.805111 
L 148.546853 -231.648695 
L 148.394366 -230.492279 
L 148.232458 -229.335862 
L 148.061526 -228.179446 
L 147.882057 -227.02303 
L 147.694629 -225.866614 
L 147.499904 -224.710198 
L 147.298627 -223.553782 
L 147.091611 -222.397366 
L 146.879735 -221.24095 
L 146.663929 -220.084534 
L 146.445165 -218.928117 
L 146.224439 -217.771701 
L 146.002763 -216.615285 
L 145.781152 -215.458869 
L 145.560604 -214.302453 
L 145.342095 -213.146037 
L 145.126562 -211.989621 
L 144.914895 -210.833205 
L 144.707923 -209.676788 
L 144.506411 -208.520372 
L 144.311046 -207.363956 
L 144.12244 -206.20754 
L 143.941117 -205.051124 
L 143.767517 -203.894708 
L 143.601993 -202.738292 
L 143.444811 -201.581876 
L 143.296154 -200.42546 
L 143.156122 -199.269043 
L 143.02474 -198.112627 
L 142.901961 -196.956211 
L 142.787671 -195.799795 
L 142.681698 -194.643379 
L 142.583817 -193.486963 
L 142.493759 -192.330547 
z
" style="stroke: #6f6f6f; stroke-width: 1.5"/>
    </defs>
    <g clip-path="url(#p768935dd7a)">
     <use xlink:href="#m713b318697" x="0" y="372.511986" style="fill: #efb792; stroke: #6f6f6f; stroke-width: 1.5"/>
    </g>
   </g>
   <g id="PolyCollection_3">
    <defs>
     <path id="m19982b1c82" d="M 214.022568 -182.71001 
L 212.307432 -182.71001 
L 212.185967 -183.823328 
L 212.051698 -184.936646 
L 211.903997 -186.049964 
L 211.742319 -187.163282 
L 211.566219 -188.276599 
L 211.375377 -189.389917 
L 211.169615 -190.503235 
L 210.948916 -191.616553 
L 210.713446 -192.729871 
L 210.463563 -193.843188 
L 210.199838 -194.956506 
L 209.92306 -196.069824 
L 209.634249 -197.183142 
L 209.334651 -198.29646 
L 209.025746 -199.409778 
L 208.709231 -200.523095 
L 208.387016 -201.636413 
L 208.061201 -202.749731 
L 207.734056 -203.863049 
L 207.407991 -204.976367 
L 207.085526 -206.089685 
L 206.769247 -207.203002 
L 206.461774 -208.31632 
L 206.165709 -209.429638 
L 205.883593 -210.542956 
L 205.617863 -211.656274 
L 205.370799 -212.769591 
L 205.144484 -213.882909 
L 204.940762 -214.996227 
L 204.761199 -216.109545 
L 204.607049 -217.222863 
L 204.479231 -218.336181 
L 204.378308 -219.449498 
L 204.304474 -220.562816 
L 204.257553 -221.676134 
L 204.237 -222.789452 
L 204.24192 -223.90277 
L 204.271084 -225.016088 
L 204.322962 -226.129405 
L 204.39576 -227.242723 
L 204.487458 -228.356041 
L 204.595863 -229.469359 
L 204.718655 -230.582677 
L 204.853445 -231.695994 
L 204.997824 -232.809312 
L 205.149423 -233.92263 
L 205.305958 -235.035948 
L 205.465283 -236.149266 
L 205.62543 -237.262584 
L 205.784646 -238.375901 
L 205.941427 -239.489219 
L 206.094536 -240.602537 
L 206.243023 -241.715855 
L 206.386228 -242.829173 
L 206.52378 -243.942491 
L 206.655589 -245.055808 
L 206.781831 -246.169126 
L 206.90292 -247.282444 
L 207.019483 -248.395762 
L 207.132325 -249.50908 
L 207.242389 -250.622397 
L 207.350723 -251.735715 
L 207.458434 -252.849033 
L 207.566646 -253.962351 
L 207.676469 -255.075669 
L 207.788952 -256.188987 
L 207.905059 -257.302304 
L 208.025634 -258.415622 
L 208.151378 -259.52894 
L 208.282832 -260.642258 
L 208.420363 -261.755576 
L 208.564156 -262.868894 
L 208.714214 -263.982211 
L 208.870357 -265.095529 
L 209.032237 -266.208847 
L 209.199347 -267.322165 
L 209.371036 -268.435483 
L 209.546534 -269.5488 
L 209.724971 -270.662118 
L 209.905399 -271.775436 
L 210.086821 -272.888754 
L 210.268208 -274.002072 
L 210.448532 -275.11539 
L 210.62678 -276.228707 
L 210.801977 -277.342025 
L 210.973207 -278.455343 
L 211.139624 -279.568661 
L 211.300468 -280.681979 
L 211.455073 -281.795297 
L 211.602873 -282.908614 
L 211.743409 -284.021932 
L 211.876326 -285.13525 
L 212.001377 -286.248568 
L 212.118414 -287.361886 
L 212.227386 -288.475203 
L 212.328331 -289.588521 
L 212.421366 -290.701839 
L 212.506682 -291.815157 
L 212.584532 -292.928475 
L 213.745468 -292.928475 
L 213.745468 -292.928475 
L 213.823318 -291.815157 
L 213.908634 -290.701839 
L 214.001669 -289.588521 
L 214.102614 -288.475203 
L 214.211586 -287.361886 
L 214.328623 -286.248568 
L 214.453674 -285.13525 
L 214.586591 -284.021932 
L 214.727127 -282.908614 
L 214.874927 -281.795297 
L 215.029532 -280.681979 
L 215.190376 -279.568661 
L 215.356793 -278.455343 
L 215.528023 -277.342025 
L 215.70322 -276.228707 
L 215.881468 -275.11539 
L 216.061792 -274.002072 
L 216.243179 -272.888754 
L 216.424601 -271.775436 
L 216.605029 -270.662118 
L 216.783466 -269.5488 
L 216.958964 -268.435483 
L 217.130653 -267.322165 
L 217.297763 -266.208847 
L 217.459643 -265.095529 
L 217.615786 -263.982211 
L 217.765844 -262.868894 
L 217.909637 -261.755576 
L 218.047168 -260.642258 
L 218.178622 -259.52894 
L 218.304366 -258.415622 
L 218.424941 -257.302304 
L 218.541048 -256.188987 
L 218.653531 -255.075669 
L 218.763354 -253.962351 
L 218.871566 -252.849033 
L 218.979277 -251.735715 
L 219.087611 -250.622397 
L 219.197675 -249.50908 
L 219.310517 -248.395762 
L 219.42708 -247.282444 
L 219.548169 -246.169126 
L 219.674411 -245.055808 
L 219.80622 -243.942491 
L 219.943772 -242.829173 
L 220.086977 -241.715855 
L 220.235464 -240.602537 
L 220.388573 -239.489219 
L 220.545354 -238.375901 
L 220.70457 -237.262584 
L 220.864717 -236.149266 
L 221.024042 -235.035948 
L 221.180577 -233.92263 
L 221.332176 -232.809312 
L 221.476555 -231.695994 
L 221.611345 -230.582677 
L 221.734137 -229.469359 
L 221.842542 -228.356041 
L 221.93424 -227.242723 
L 222.007038 -226.129405 
L 222.058916 -225.016088 
L 222.08808 -223.90277 
L 222.093 -222.789452 
L 222.072447 -221.676134 
L 222.025526 -220.562816 
L 221.951692 -219.449498 
L 221.850769 -218.336181 
L 221.722951 -217.222863 
L 221.568801 -216.109545 
L 221.389238 -214.996227 
L 221.185516 -213.882909 
L 220.959201 -212.769591 
L 220.712137 -211.656274 
L 220.446407 -210.542956 
L 220.164291 -209.429638 
L 219.868226 -208.31632 
L 219.560753 -207.203002 
L 219.244474 -206.089685 
L 218.922009 -204.976367 
L 218.595944 -203.863049 
L 218.268799 -202.749731 
L 217.942984 -201.636413 
L 217.620769 -200.523095 
L 217.304254 -199.409778 
L 216.995349 -198.29646 
L 216.695751 -197.183142 
L 216.40694 -196.069824 
L 216.130162 -194.956506 
L 215.866437 -193.843188 
L 215.616554 -192.729871 
L 215.381084 -191.616553 
L 215.160385 -190.503235 
L 214.954623 -189.389917 
L 214.763781 -188.276599 
L 214.587681 -187.163282 
L 214.426003 -186.049964 
L 214.278302 -184.936646 
L 214.144033 -183.823328 
L 214.022568 -182.71001 
z
" style="stroke: #6f6f6f; stroke-width: 1.5"/>
    </defs>
    <g clip-path="url(#p768935dd7a)">
     <use xlink:href="#m19982b1c82" x="0" y="372.511986" style="fill: #98daa7; stroke: #6f6f6f; stroke-width: 1.5"/>
    </g>
   </g>
   <g id="line2d_12">
    <path d="M 70.317 155.539159 
L 70.317 87.526831 
" clip-path="url(#p768935dd7a)" style="fill: none; stroke: #6f6f6f; stroke-width: 1.5; stroke-linecap: round"/>
   </g>
   <g id="line2d_13">
    <path d="M 70.317 153.458466 
L 70.317 119.452302 
" clip-path="url(#p768935dd7a)" style="fill: none; stroke: #6f6f6f; stroke-width: 4.5; stroke-linecap: round"/>
   </g>
   <g id="line2d_14">
    <path d="M 141.741 139.472008 
L 141.741 106.405675 
" clip-path="url(#p768935dd7a)" style="fill: none; stroke: #6f6f6f; stroke-width: 1.5; stroke-linecap: round"/>
   </g>
   <g id="line2d_15">
    <path d="M 141.741 131.205425 
L 141.741 114.672258 
" clip-path="url(#p768935dd7a)" style="fill: none; stroke: #6f6f6f; stroke-width: 4.5; stroke-linecap: round"/>
   </g>
   <g id="line2d_16">
    <path d="M 213.165 154.846585 
L 213.165 114.538902 
" clip-path="url(#p768935dd7a)" style="fill: none; stroke: #6f6f6f; stroke-width: 1.5; stroke-linecap: round"/>
   </g>
   <g id="line2d_17">
    <path d="M 213.165 151.903983 
L 213.165 131.750141 
" clip-path="url(#p768935dd7a)" style="fill: none; stroke: #6f6f6f; stroke-width: 4.5; stroke-linecap: round"/>
   </g>
   <g id="line2d_18">
    <path d="M 275.661 117.521069 
L 293.517 117.521069 
" clip-path="url(#p768935dd7a)" style="fill: none; stroke: #6f6f6f; stroke-width: 1.5; stroke-linecap: round"/>
   </g>
   <g id="line2d_19">
    <path d="M 347.085 155.404315 
L 364.941 155.404315 
" clip-path="url(#p768935dd7a)" style="fill: none; stroke: #6f6f6f; stroke-width: 1.5; stroke-linecap: round"/>
   </g>
   <g id="patch_3">
    <path d="M 34.605 276.175125 
L 34.605 10.063125 
" style="fill: none; stroke: #262626; stroke-width: 0.8; stroke-linejoin: miter; stroke-linecap: square"/>
   </g>
   <g id="patch_4">
    <path d="M 34.605 276.175125 
L 391.725 276.175125 
" style="fill: none; stroke: #262626; stroke-width: 0.8; stroke-linejoin: miter; stroke-linecap: square"/>
   </g>
   <g id="PathCollection_1">
    <defs>
     <path id="m0697509a66" d="M 0 1.5 
C 0.397805 1.5 0.77937 1.341951 1.06066 1.06066 
C 1.341951 0.77937 1.5 0.397805 1.5 0 
C 1.5 -0.397805 1.341951 -0.77937 1.06066 -1.06066 
C 0.77937 -1.341951 0.397805 -1.5 0 -1.5 
C -0.397805 -1.5 -0.77937 -1.341951 -1.06066 -1.06066 
C -1.341951 -0.77937 -1.5 -0.397805 -1.5 0 
C -1.5 0.397805 -1.341951 0.77937 -1.06066 1.06066 
C -0.77937 1.341951 -0.397805 1.5 0 1.5 
z
" style="stroke: #6f6f6f"/>
    </defs>
    <g clip-path="url(#p768935dd7a)">
     <use xlink:href="#m0697509a66" x="70.317" y="151.377774" style="fill: #ffffff; stroke: #6f6f6f"/>
    </g>
   </g>
   <g id="PathCollection_2">
    <g clip-path="url(#p768935dd7a)">
     <use xlink:href="#m0697509a66" x="141.741" y="122.938841" style="fill: #ffffff; stroke: #6f6f6f"/>
    </g>
   </g>
   <g id="PathCollection_3">
    <g clip-path="url(#p768935dd7a)">
     <use xlink:href="#m0697509a66" x="213.165" y="148.961381" style="fill: #ffffff; stroke: #6f6f6f"/>
    </g>
   </g>
   <g id="PathCollection_4">
    <defs>
     <path id="C0_0_371572a798" d="M 0 2.5 
C 0.663008 2.5 1.29895 2.236584 1.767767 1.767767 
C 2.236584 1.29895 2.5 0.663008 2.5 -0 
C 2.5 -0.663008 2.236584 -1.29895 1.767767 -1.767767 
C 1.29895 -2.236584 0.663008 -2.5 0 -2.5 
C -0.663008 -2.5 -1.29895 -2.236584 -1.767767 -1.767767 
C -2.236584 -1.29895 -2.5 -0.663008 -2.5 0 
C -2.5 0.663008 -2.236584 1.29895 -1.767767 1.767767 
C -1.29895 2.236584 -0.663008 2.5 0 2.5 
z
"/>
    </defs>
    <g clip-path="url(#p768935dd7a)">
     <use xlink:href="#C0_0_371572a798" x="70.317" y="87.526831" style="fill: #a1c9f4; stroke: #7a7a7a; stroke-width: 2"/>
    </g>
    <g clip-path="url(#p768935dd7a)">
     <use xlink:href="#C0_0_371572a798" x="64.406808" y="151.377774" style="fill: #a1c9f4; stroke: #7a7a7a; stroke-width: 2"/>
    </g>
    <g clip-path="url(#p768935dd7a)">
     <use xlink:href="#C0_0_371572a798" x="70.317" y="155.539159" style="fill: #a1c9f4; stroke: #7a7a7a; stroke-width: 2"/>
    </g>
   </g>
   <g id="PathCollection_5">
    <defs>
     <path id="C1_0_170cae5e2e" d="M 0 2.5 
C 0.663008 2.5 1.29895 2.236584 1.767767 1.767767 
C 2.236584 1.29895 2.5 0.663008 2.5 -0 
C 2.5 -0.663008 2.236584 -1.29895 1.767767 -1.767767 
C 1.29895 -2.236584 0.663008 -2.5 0 -2.5 
C -0.663008 -2.5 -1.29895 -2.236584 -1.767767 -1.767767 
C -2.236584 -1.29895 -2.5 -0.663008 -2.5 0 
C -2.5 0.663008 -2.236584 1.29895 -1.767767 1.767767 
C -1.29895 2.236584 -0.663008 2.5 0 2.5 
z
"/>
    </defs>
    <g clip-path="url(#p768935dd7a)">
     <use xlink:href="#C1_0_170cae5e2e" x="141.741" y="106.405675" style="fill: #ffb482; stroke: #737373; stroke-width: 2"/>
    </g>
    <g clip-path="url(#p768935dd7a)">
     <use xlink:href="#C1_0_170cae5e2e" x="141.741" y="139.472008" style="fill: #ffb482; stroke: #737373; stroke-width: 2"/>
    </g>
   </g>
   <g id="PathCollection_6">
    <defs>
     <path id="C2_0_96cc126292" d="M 0 2.5 
C 0.663008 2.5 1.29895 2.236584 1.767767 1.767767 
C 2.236584 1.29895 2.5 0.663008 2.5 -0 
C 2.5 -0.663008 2.236584 -1.29895 1.767767 -1.767767 
C 1.29895 -2.236584 0.663008 -2.5 0 -2.5 
C -0.663008 -2.5 -1.29895 -2.236584 -1.767767 -1.767767 
C -2.236584 -1.29895 -2.5 -0.663008 -2.5 0 
C -2.5 0.663008 -2.236584 1.29895 -1.767767 1.767767 
C -1.29895 2.236584 -0.663008 2.5 0 2.5 
z
"/>
    </defs>
    <g clip-path="url(#p768935dd7a)">
     <use xlink:href="#C2_0_96cc126292" x="213.165" y="114.538902" style="fill: #8de5a1; stroke: #6f6f6f; stroke-width: 2"/>
    </g>
    <g clip-path="url(#p768935dd7a)">
     <use xlink:href="#C2_0_96cc126292" x="209.185462" y="148.961381" style="fill: #8de5a1; stroke: #6f6f6f; stroke-width: 2"/>
    </g>
    <g clip-path="url(#p768935dd7a)">
     <use xlink:href="#C2_0_96cc126292" x="213.165" y="154.846585" style="fill: #8de5a1; stroke: #6f6f6f; stroke-width: 2"/>
    </g>
   </g>
   <g id="PathCollection_7">
    <defs>
     <path id="m9491f1f2da" d="M 0 2.5 
C 0.663008 2.5 1.29895 2.236584 1.767767 1.767767 
C 2.236584 1.29895 2.5 0.663008 2.5 0 
C 2.5 -0.663008 2.236584 -1.29895 1.767767 -1.767767 
C 1.29895 -2.236584 0.663008 -2.5 0 -2.5 
C -0.663008 -2.5 -1.29895 -2.236584 -1.767767 -1.767767 
C -2.236584 -1.29895 -2.5 -0.663008 -2.5 0 
C -2.5 0.663008 -2.236584 1.29895 -1.767767 1.767767 
C -1.29895 2.236584 -0.663008 2.5 0 2.5 
z
" style="stroke: #7b7b7b; stroke-width: 2"/>
    </defs>
    <g clip-path="url(#p768935dd7a)">
     <use xlink:href="#m9491f1f2da" x="284.589" y="117.521069" style="fill: #ff9f9b; stroke: #7b7b7b; stroke-width: 2"/>
    </g>
   </g>
   <g id="PathCollection_8">
    <defs>
     <path id="mc40e502d08" d="M 0 2.5 
C 0.663008 2.5 1.29895 2.236584 1.767767 1.767767 
C 2.236584 1.29895 2.5 0.663008 2.5 0 
C 2.5 -0.663008 2.236584 -1.29895 1.767767 -1.767767 
C 1.29895 -2.236584 0.663008 -2.5 0 -2.5 
C -0.663008 -2.5 -1.29895 -2.236584 -1.767767 -1.767767 
C -2.236584 -1.29895 -2.5 -0.663008 -2.5 0 
C -2.5 0.663008 -2.236584 1.29895 -1.767767 1.767767 
C -1.29895 2.236584 -0.663008 2.5 0 2.5 
z
" style="stroke: #858585; stroke-width: 2"/>
    </defs>
    <g clip-path="url(#p768935dd7a)">
     <use xlink:href="#mc40e502d08" x="356.013" y="155.404315" style="fill: #d0bbff; stroke: #858585; stroke-width: 2"/>
    </g>
   </g>
  </g>
 </g>
 <defs>
  <clipPath id="p768935dd7a">
   <rect x="34.605" y="10.063125" width="357.12" height="266.112"/>
  </clipPath>
 </defs>
</svg>
